solid OpenSCAD_Model
  facet normal 0.481753 -0.876307 0
    outer loop
      vertex 10.4062 -0.238616 0
      vertex 11.2866 0.245377 5
      vertex 10.4062 -0.238616 5
    endloop
  endfacet
  facet normal 0.481753 -0.876307 0
    outer loop
      vertex 11.2866 0.245377 5
      vertex 10.4062 -0.238616 0
      vertex 11.2866 0.245377 0
    endloop
  endfacet
  facet normal -0.684547 -0.728968 0
    outer loop
      vertex -2.55139 -2.39591 0
      vertex -2.23098 -2.6968 5
      vertex -2.55139 -2.39591 5
    endloop
  endfacet
  facet normal -0.684547 -0.728968 -0
    outer loop
      vertex -2.23098 -2.6968 5
      vertex -2.55139 -2.39591 0
      vertex -2.23098 -2.6968 0
    endloop
  endfacet
  facet normal 0.844328 -0.535827 0
    outer loop
      vertex 13.4721 2.29772 5
      vertex 14.0105 3.14597 0
      vertex 14.0105 3.14597 5
    endloop
  endfacet
  facet normal 0.844328 -0.535827 0
    outer loop
      vertex 14.0105 3.14597 0
      vertex 13.4721 2.29772 5
      vertex 13.4721 2.29772 0
    endloop
  endfacet
  facet normal -0.844328 0.535826 0
    outer loop
      vertex -0.0104532 10.854 0
      vertex 0.527864 11.7023 5
      vertex 0.527864 11.7023 0
    endloop
  endfacet
  facet normal -0.844328 0.535826 0
    outer loop
      vertex 0.527864 11.7023 5
      vertex -0.0104532 10.854 0
      vertex -0.0104532 10.854 5
    endloop
  endfacet
  facet normal 0.368125 -0.929776 0
    outer loop
      vertex 9.47214 -0.608452 0
      vertex 10.4062 -0.238616 5
      vertex 9.47214 -0.608452 5
    endloop
  endfacet
  facet normal 0.368125 -0.929776 0
    outer loop
      vertex 10.4062 -0.238616 5
      vertex 9.47214 -0.608452 0
      vertex 10.4062 -0.238616 0
    endloop
  endfacet
  facet normal 0.998027 -0.0627908 0
    outer loop
      vertex 14.9369 5.99733 5
      vertex 15 7 0
      vertex 15 7 5
    endloop
  endfacet
  facet normal 0.998027 -0.0627908 0
    outer loop
      vertex 15 7 0
      vertex 14.9369 5.99733 5
      vertex 14.9369 5.99733 0
    endloop
  endfacet
  facet normal 0.684547 -0.728969 0
    outer loop
      vertex 12.0994 0.835894 0
      vertex 12.8317 1.52362 5
      vertex 12.0994 0.835894 5
    endloop
  endfacet
  facet normal 0.684547 -0.728969 0
    outer loop
      vertex 12.8317 1.52362 5
      vertex 12.0994 0.835894 0
      vertex 12.8317 1.52362 0
    endloop
  endfacet
  facet normal 0 0 -1
    outer loop
      vertex 13.05 7 0
      vertex 15 7 0
      vertex 14.9369 5.99733 0
    endloop
  endfacet
  facet normal 0 0 -1
    outer loop
      vertex 13.0023 6.24173 0
      vertex 14.9369 5.99733 0
      vertex 14.7487 5.01048 0
    endloop
  endfacet
  facet normal 0 0 -1
    outer loop
      vertex 15 7 0
      vertex 13.05 7 0
      vertex 14.9369 8.00267 0
    endloop
  endfacet
  facet normal 0 0 -1
    outer loop
      vertex 12.8599 5.49543 0
      vertex 14.7487 5.01048 0
      vertex 14.4382 4.055 0
    endloop
  endfacet
  facet normal 0 0 -1
    outer loop
      vertex 13.0023 7.75827 0
      vertex 14.9369 8.00267 0
      vertex 13.05 7 0
    endloop
  endfacet
  facet normal 0 0 -1
    outer loop
      vertex 12.6251 4.77285 0
      vertex 14.4382 4.055 0
      vertex 14.0105 3.14597 0
    endloop
  endfacet
  facet normal -0 0 -1
    outer loop
      vertex 14.9369 8.00267 0
      vertex 13.0023 7.75827 0
      vertex 14.7487 8.98952 0
    endloop
  endfacet
  facet normal 0 0 -1
    outer loop
      vertex 12.3017 4.08539 0
      vertex 14.0105 3.14597 0
      vertex 13.4721 2.29772 0
    endloop
  endfacet
  facet normal 0 0 -1
    outer loop
      vertex 12.8599 8.50457 0
      vertex 14.7487 8.98952 0
      vertex 13.0023 7.75827 0
    endloop
  endfacet
  facet normal -0 0 -1
    outer loop
      vertex 14.7487 8.98952 0
      vertex 12.8599 8.50457 0
      vertex 14.4382 9.945 0
    endloop
  endfacet
  facet normal 0 0 -1
    outer loop
      vertex 14.9369 5.99733 0
      vertex 13.0023 6.24173 0
      vertex 13.05 7 0
    endloop
  endfacet
  facet normal 0 0 -1
    outer loop
      vertex 14.7487 5.01048 0
      vertex 12.8599 5.49543 0
      vertex 13.0023 6.24173 0
    endloop
  endfacet
  facet normal 0 0 -1
    outer loop
      vertex 11.8946 3.4439 0
      vertex 13.4721 2.29772 0
      vertex 12.8317 1.52362 0
    endloop
  endfacet
  facet normal 0 0 -1
    outer loop
      vertex 14.4382 4.055 0
      vertex 12.6251 4.77285 0
      vertex 12.8599 5.49543 0
    endloop
  endfacet
  facet normal 0 0 -1
    outer loop
      vertex 14.0105 3.14597 0
      vertex 12.3017 4.08539 0
      vertex 12.6251 4.77285 0
    endloop
  endfacet
  facet normal 0 0 -1
    outer loop
      vertex 11.4103 2.85849 0
      vertex 12.8317 1.52362 0
      vertex 12.0994 0.835894 0
    endloop
  endfacet
  facet normal 0 0 -1
    outer loop
      vertex 13.4721 2.29772 0
      vertex 11.8946 3.4439 0
      vertex 12.3017 4.08539 0
    endloop
  endfacet
  facet normal 0 0 -1
    outer loop
      vertex 12.8317 1.52362 0
      vertex 11.4103 2.85849 0
      vertex 11.8946 3.4439 0
    endloop
  endfacet
  facet normal 0 0 -1
    outer loop
      vertex 10.8564 2.33839 0
      vertex 12.0994 0.835894 0
      vertex 11.2866 0.245377 0
    endloop
  endfacet
  facet normal 0 0 -1
    outer loop
      vertex 12.0994 0.835894 0
      vertex 10.8564 2.33839 0
      vertex 11.4103 2.85849 0
    endloop
  endfacet
  facet normal 0 0 -1
    outer loop
      vertex 10.2418 1.89182 0
      vertex 11.2866 0.245377 0
      vertex 10.4062 -0.238616 0
    endloop
  endfacet
  facet normal 0 0 -1
    outer loop
      vertex 11.2866 0.245377 0
      vertex 10.2418 1.89182 0
      vertex 10.8564 2.33839 0
    endloop
  endfacet
  facet normal 0 0 -1
    outer loop
      vertex 10.4062 -0.238616 0
      vertex 9.57596 1.5258 0
      vertex 10.2418 1.89182 0
    endloop
  endfacet
  facet normal 0 0 -1
    outer loop
      vertex 9.47214 -0.608452 0
      vertex 9.57596 1.5258 0
      vertex 10.4062 -0.238616 0
    endloop
  endfacet
  facet normal 0 0 -1
    outer loop
      vertex 9.47214 -0.608452 0
      vertex 8.86955 1.24611 0
      vertex 9.57596 1.5258 0
    endloop
  endfacet
  facet normal 0 0 -1
    outer loop
      vertex 9.47214 -0.608452 0
      vertex 8.13366 1.05716 0
      vertex 8.86955 1.24611 0
    endloop
  endfacet
  facet normal 0 0 -1
    outer loop
      vertex 9.47214 -0.608452 0
      vertex 7.37988 0.961938 0
      vertex 8.13366 1.05716 0
    endloop
  endfacet
  facet normal 0 0 -1
    outer loop
      vertex 9.47214 -0.608452 0
      vertex 6.62012 0.961938 0
      vertex 7.37988 0.961938 0
    endloop
  endfacet
  facet normal 0 0 -1
    outer loop
      vertex 1.08156 -3.3287 0
      vertex 6.62012 0.961938 0
      vertex 9.47214 -0.608452 0
    endloop
  endfacet
  facet normal -0 0 -1
    outer loop
      vertex 6.62012 0.961938 0
      vertex 1.08156 -3.3287 0
      vertex 5.86634 1.05716 0
    endloop
  endfacet
  facet normal 0 -0 -1
    outer loop
      vertex 1.35827 -0.746717 0
      vertex 5.86634 1.05716 0
      vertex 1.08156 -3.3287 0
    endloop
  endfacet
  facet normal 0 0 -1
    outer loop
      vertex 1.5013 0.385468 0
      vertex 3.75825 1.89182 0
      vertex 1.53778 0.194266 0
    endloop
  endfacet
  facet normal 0 0 -1
    outer loop
      vertex 1.53778 0.194266 0
      vertex 3.75825 1.89182 0
      vertex 1.55 0 0
    endloop
  endfacet
  facet normal -0 0 -1
    outer loop
      vertex 4.42404 1.5258 0
      vertex 1.55 0 0
      vertex 3.75825 1.89182 0
    endloop
  endfacet
  facet normal -0 0 -1
    outer loop
      vertex 5.86634 1.05716 0
      vertex 1.35827 -0.746717 0
      vertex 5.13045 1.24611 0
    endloop
  endfacet
  facet normal 0 0 -1
    outer loop
      vertex 4.42404 1.5258 0
      vertex 1.53778 -0.194266 0
      vertex 1.55 0 0
    endloop
  endfacet
  facet normal 0 0 -1
    outer loop
      vertex 4.42404 1.5258 0
      vertex 1.5013 -0.385468 0
      vertex 1.53778 -0.194266 0
    endloop
  endfacet
  facet normal -0 0 -1
    outer loop
      vertex 5.13045 1.24611 0
      vertex 1.5013 -0.385468 0
      vertex 4.42404 1.5258 0
    endloop
  endfacet
  facet normal 0 -0 -1
    outer loop
      vertex 1.44115 -0.570593 0
      vertex 5.13045 1.24611 0
      vertex 1.35827 -0.746717 0
    endloop
  endfacet
  facet normal 0 -0 -1
    outer loop
      vertex 1.5013 -0.385468 0
      vertex 5.13045 1.24611 0
      vertex 1.44115 -0.570593 0
    endloop
  endfacet
  facet normal 0 0 -1
    outer loop
      vertex 1.35827 -0.746717 0
      vertex 1.08156 -3.3287 0
      vertex 1.25398 -0.911067 0
    endloop
  endfacet
  facet normal 0 0 -1
    outer loop
      vertex 1.25398 -0.911067 0
      vertex 1.08156 -3.3287 0
      vertex 1.1299 -1.06105 0
    endloop
  endfacet
  facet normal 0 0 -1
    outer loop
      vertex 1.08156 -3.3287 0
      vertex 0.988007 -1.19429 0
      vertex 1.1299 -1.06105 0
    endloop
  endfacet
  facet normal 0 0 -1
    outer loop
      vertex 1.08156 -3.3287 0
      vertex 0.830531 -1.30871 0
      vertex 0.988007 -1.19429 0
    endloop
  endfacet
  facet normal 0 0 -1
    outer loop
      vertex 1.08156 -3.3287 0
      vertex 0.659958 -1.40248 0
      vertex 0.830531 -1.30871 0
    endloop
  endfacet
  facet normal 0 0 -1
    outer loop
      vertex 0.478976 -1.47414 0
      vertex 1.08156 -3.3287 0
      vertex 0.655834 -3.438 0
    endloop
  endfacet
  facet normal 0 0 -1
    outer loop
      vertex 1.08156 -3.3287 0
      vertex 0.478976 -1.47414 0
      vertex 0.659958 -1.40248 0
    endloop
  endfacet
  facet normal 0 0 -1
    outer loop
      vertex 0.655834 -3.438 0
      vertex 0.290441 -1.52254 0
      vertex 0.478976 -1.47414 0
    endloop
  endfacet
  facet normal 0 0 -1
    outer loop
      vertex 0.219767 -3.49309 0
      vertex 0.290441 -1.52254 0
      vertex 0.655834 -3.438 0
    endloop
  endfacet
  facet normal 0 0 -1
    outer loop
      vertex 0.219767 -3.49309 0
      vertex 0.0973244 -1.54694 0
      vertex 0.290441 -1.52254 0
    endloop
  endfacet
  facet normal 0 0 -1
    outer loop
      vertex 0.219767 -3.49309 0
      vertex -0.0973244 -1.54694 0
      vertex 0.0973244 -1.54694 0
    endloop
  endfacet
  facet normal 0 0 -1
    outer loop
      vertex -0.219767 -3.49309 0
      vertex -0.0973244 -1.54694 0
      vertex 0.219767 -3.49309 0
    endloop
  endfacet
  facet normal 0 0 -1
    outer loop
      vertex -0.219767 -3.49309 0
      vertex -0.290441 -1.52254 0
      vertex -0.0973244 -1.54694 0
    endloop
  endfacet
  facet normal 0 0 -1
    outer loop
      vertex -0.655834 -3.438 0
      vertex -0.290441 -1.52254 0
      vertex -0.219767 -3.49309 0
    endloop
  endfacet
  facet normal -0 0 -1
    outer loop
      vertex -0.290441 -1.52254 0
      vertex -0.655834 -3.438 0
      vertex -0.478976 -1.47414 0
    endloop
  endfacet
  facet normal 0 0 -1
    outer loop
      vertex -1.08156 -3.3287 0
      vertex -0.478976 -1.47414 0
      vertex -0.655834 -3.438 0
    endloop
  endfacet
  facet normal -0 0 -1
    outer loop
      vertex -0.478976 -1.47414 0
      vertex -1.08156 -3.3287 0
      vertex -0.659958 -1.40248 0
    endloop
  endfacet
  facet normal 0 0 -1
    outer loop
      vertex -1.49023 -3.16689 0
      vertex -0.659958 -1.40248 0
      vertex -1.08156 -3.3287 0
    endloop
  endfacet
  facet normal -0 0 -1
    outer loop
      vertex -0.659958 -1.40248 0
      vertex -1.49023 -3.16689 0
      vertex -0.830531 -1.30871 0
    endloop
  endfacet
  facet normal 0 0 -1
    outer loop
      vertex -1.87539 -2.95515 0
      vertex -0.830531 -1.30871 0
      vertex -1.49023 -3.16689 0
    endloop
  endfacet
  facet normal -0 0 -1
    outer loop
      vertex -0.830531 -1.30871 0
      vertex -1.87539 -2.95515 0
      vertex -0.988007 -1.19429 0
    endloop
  endfacet
  facet normal 0 0 -1
    outer loop
      vertex -2.23098 -2.6968 0
      vertex -0.988007 -1.19429 0
      vertex -1.87539 -2.95515 0
    endloop
  endfacet
  facet normal -0 0 -1
    outer loop
      vertex -0.988007 -1.19429 0
      vertex -2.23098 -2.6968 0
      vertex -1.1299 -1.06105 0
    endloop
  endfacet
  facet normal 0 0 -1
    outer loop
      vertex -2.55139 -2.39591 0
      vertex -1.1299 -1.06105 0
      vertex -2.23098 -2.6968 0
    endloop
  endfacet
  facet normal -0 0 -1
    outer loop
      vertex -1.1299 -1.06105 0
      vertex -2.55139 -2.39591 0
      vertex -1.25398 -0.911067 0
    endloop
  endfacet
  facet normal 0 0 -1
    outer loop
      vertex -2.83156 -2.05725 0
      vertex -1.25398 -0.911067 0
      vertex -2.55139 -2.39591 0
    endloop
  endfacet
  facet normal -0 0 -1
    outer loop
      vertex -1.25398 -0.911067 0
      vertex -2.83156 -2.05725 0
      vertex -1.35827 -0.746717 0
    endloop
  endfacet
  facet normal 0 0 -1
    outer loop
      vertex -3.06707 -1.68614 0
      vertex -1.35827 -0.746717 0
      vertex -2.83156 -2.05725 0
    endloop
  endfacet
  facet normal 0 0 -1
    outer loop
      vertex 12.6251 9.22715 0
      vertex 14.4382 9.945 0
      vertex 12.8599 8.50457 0
    endloop
  endfacet
  facet normal -0 0 -1
    outer loop
      vertex 14.4382 9.945 0
      vertex 12.6251 9.22715 0
      vertex 14.0105 10.854 0
    endloop
  endfacet
  facet normal 0 0 -1
    outer loop
      vertex 12.3017 9.91461 0
      vertex 14.0105 10.854 0
      vertex 12.6251 9.22715 0
    endloop
  endfacet
  facet normal -0 0 -1
    outer loop
      vertex 14.0105 10.854 0
      vertex 12.3017 9.91461 0
      vertex 13.4721 11.7023 0
    endloop
  endfacet
  facet normal 0 0 -1
    outer loop
      vertex 11.8946 10.5561 0
      vertex 13.4721 11.7023 0
      vertex 12.3017 9.91461 0
    endloop
  endfacet
  facet normal 0 0 -1
    outer loop
      vertex 11.6087 10.9016 0
      vertex 13.4721 11.7023 0
      vertex 11.8946 10.5561 0
    endloop
  endfacet
  facet normal -0 0 -1
    outer loop
      vertex 13.4721 11.7023 0
      vertex 11.6087 10.9016 0
      vertex 12.991 12.2839 0
    endloop
  endfacet
  facet normal 0 0 -1
    outer loop
      vertex 1.44115 0.570593 0
      vertex 3.75825 1.89182 0
      vertex 1.5013 0.385468 0
    endloop
  endfacet
  facet normal -0 0 -1
    outer loop
      vertex 3.75825 1.89182 0
      vertex 1.44115 0.570593 0
      vertex 3.14358 2.33839 0
    endloop
  endfacet
  facet normal 0 0 -1
    outer loop
      vertex 1.38885 0.681743 0
      vertex 3.14358 2.33839 0
      vertex 1.44115 0.570593 0
    endloop
  endfacet
  facet normal -0 0 -1
    outer loop
      vertex 3.14358 2.33839 0
      vertex 1.38885 0.681743 0
      vertex 3.093 2.38589 0
    endloop
  endfacet
  facet normal 0 0 -1
    outer loop
      vertex 1.09439 1.09439 0
      vertex 2.58974 2.85849 0
      vertex 2.72834 2.72834 0
    endloop
  endfacet
  facet normal 0 0 -1
    outer loop
      vertex 0.988007 1.19429 0
      vertex 2.58974 2.85849 0
      vertex 1.09439 1.09439 0
    endloop
  endfacet
  facet normal 0 0 -1
    outer loop
      vertex 0.830531 1.30871 0
      vertex 2.58974 2.85849 0
      vertex 0.988007 1.19429 0
    endloop
  endfacet
  facet normal -0 0 -1
    outer loop
      vertex 2.58974 2.85849 0
      vertex 0.830531 1.30871 0
      vertex 2.10545 3.4439 0
    endloop
  endfacet
  facet normal 0 0 -1
    outer loop
      vertex 0.659958 1.40248 0
      vertex 2.10545 3.4439 0
      vertex 0.830531 1.30871 0
    endloop
  endfacet
  facet normal 0 0 -1
    outer loop
      vertex 0.478976 1.47414 0
      vertex 2.10545 3.4439 0
      vertex 0.659958 1.40248 0
    endloop
  endfacet
  facet normal 0 0 -1
    outer loop
      vertex 0.290441 1.52254 0
      vertex 2.10545 3.4439 0
      vertex 0.478976 1.47414 0
    endloop
  endfacet
  facet normal -0 0 -1
    outer loop
      vertex 2.10545 3.4439 0
      vertex 0.290441 1.52254 0
      vertex 1.69834 4.08539 0
    endloop
  endfacet
  facet normal 0 0 -1
    outer loop
      vertex 0.0973244 1.54694 0
      vertex 1.69834 4.08539 0
      vertex 0.290441 1.52254 0
    endloop
  endfacet
  facet normal 0 0 -1
    outer loop
      vertex 10.8564 11.6616 0
      vertex 12.0994 13.1641 0
      vertex 12.6485 12.6485 0
    endloop
  endfacet
  facet normal 0 0 -1
    outer loop
      vertex 10.8564 11.6616 0
      vertex 12.6485 12.6485 0
      vertex 11.2717 11.2717 0
    endloop
  endfacet
  facet normal -0 0 -1
    outer loop
      vertex 12.0994 13.1641 0
      vertex 10.8564 11.6616 0
      vertex 11.2866 13.7546 0
    endloop
  endfacet
  facet normal 0 0 -1
    outer loop
      vertex 10.2418 12.1082 0
      vertex 11.2866 13.7546 0
      vertex 10.8564 11.6616 0
    endloop
  endfacet
  facet normal -0 0 -1
    outer loop
      vertex 11.2866 13.7546 0
      vertex 10.2418 12.1082 0
      vertex 10.4062 14.2386 0
    endloop
  endfacet
  facet normal 0 0 -1
    outer loop
      vertex 9.57596 12.4742 0
      vertex 10.4062 14.2386 0
      vertex 10.2418 12.1082 0
    endloop
  endfacet
  facet normal 0 0 -1
    outer loop
      vertex 9.57596 12.4742 0
      vertex 9.47214 14.6085 0
      vertex 10.4062 14.2386 0
    endloop
  endfacet
  facet normal 0 0 -1
    outer loop
      vertex 8.86955 12.7539 0
      vertex 9.47214 14.6085 0
      vertex 9.57596 12.4742 0
    endloop
  endfacet
  facet normal 0 0 -1
    outer loop
      vertex 8.86955 12.7539 0
      vertex 8.49905 14.8583 0
      vertex 9.47214 14.6085 0
    endloop
  endfacet
  facet normal 0 0 -1
    outer loop
      vertex 8.13366 12.9428 0
      vertex 8.49905 14.8583 0
      vertex 8.86955 12.7539 0
    endloop
  endfacet
  facet normal 0 0 -1
    outer loop
      vertex 8.13366 12.9428 0
      vertex 7.50232 14.9842 0
      vertex 8.49905 14.8583 0
    endloop
  endfacet
  facet normal 0 0 -1
    outer loop
      vertex 7.37988 13.0381 0
      vertex 7.50232 14.9842 0
      vertex 8.13366 12.9428 0
    endloop
  endfacet
  facet normal 0 0 -1
    outer loop
      vertex 6.62012 13.0381 0
      vertex 7.50232 14.9842 0
      vertex 7.37988 13.0381 0
    endloop
  endfacet
  facet normal 0 0 -1
    outer loop
      vertex 6.62012 13.0381 0
      vertex 6.49767 14.9842 0
      vertex 7.50232 14.9842 0
    endloop
  endfacet
  facet normal 0 0 -1
    outer loop
      vertex 5.86634 12.9428 0
      vertex 6.49767 14.9842 0
      vertex 6.62012 13.0381 0
    endloop
  endfacet
  facet normal 0 0 -1
    outer loop
      vertex 5.86634 12.9428 0
      vertex 5.50095 14.8583 0
      vertex 6.49767 14.9842 0
    endloop
  endfacet
  facet normal 0 0 -1
    outer loop
      vertex 5.13045 12.7539 0
      vertex 5.50095 14.8583 0
      vertex 5.86634 12.9428 0
    endloop
  endfacet
  facet normal 0 0 -1
    outer loop
      vertex 5.13045 12.7539 0
      vertex 4.52786 14.6085 0
      vertex 5.50095 14.8583 0
    endloop
  endfacet
  facet normal 0 0 -1
    outer loop
      vertex 4.42404 12.4742 0
      vertex 4.52786 14.6085 0
      vertex 5.13045 12.7539 0
    endloop
  endfacet
  facet normal 0 0 -1
    outer loop
      vertex 3.59377 14.2386 0
      vertex 4.42404 12.4742 0
      vertex 3.75825 12.1082 0
    endloop
  endfacet
  facet normal 0 0 -1
    outer loop
      vertex 4.42404 12.4742 0
      vertex 3.59377 14.2386 0
      vertex 4.52786 14.6085 0
    endloop
  endfacet
  facet normal 0 0 -1
    outer loop
      vertex 2.71339 13.7546 0
      vertex 3.75825 12.1082 0
      vertex 3.14358 11.6616 0
    endloop
  endfacet
  facet normal 0 0 -1
    outer loop
      vertex 3.75825 12.1082 0
      vertex 2.71339 13.7546 0
      vertex 3.59377 14.2386 0
    endloop
  endfacet
  facet normal 0 0 -1
    outer loop
      vertex 1.90061 13.1641 0
      vertex 3.14358 11.6616 0
      vertex 2.58974 11.1415 0
    endloop
  endfacet
  facet normal 0 0 -1
    outer loop
      vertex 1.16825 12.4764 0
      vertex 2.58974 11.1415 0
      vertex 2.10545 10.5561 0
    endloop
  endfacet
  facet normal 0 0 -1
    outer loop
      vertex 3.14358 11.6616 0
      vertex 1.90061 13.1641 0
      vertex 2.71339 13.7546 0
    endloop
  endfacet
  facet normal 0 0 -1
    outer loop
      vertex 0.527864 11.7023 0
      vertex 2.10545 10.5561 0
      vertex 1.69834 9.91461 0
    endloop
  endfacet
  facet normal 0 0 -1
    outer loop
      vertex -0.0104532 10.854 0
      vertex 1.69834 9.91461 0
      vertex 1.37485 9.22715 0
    endloop
  endfacet
  facet normal 0 0 -1
    outer loop
      vertex 2.58974 11.1415 0
      vertex 1.16825 12.4764 0
      vertex 1.90061 13.1641 0
    endloop
  endfacet
  facet normal 0 0 -1
    outer loop
      vertex -0.438211 9.945 0
      vertex 1.37485 9.22715 0
      vertex 1.14007 8.50457 0
    endloop
  endfacet
  facet normal 0 0 -1
    outer loop
      vertex -0.438211 9.945 0
      vertex 1.14007 8.50457 0
      vertex 0.997705 7.75827 0
    endloop
  endfacet
  facet normal 0 0 -1
    outer loop
      vertex -0.438211 9.945 0
      vertex 0.997705 7.75827 0
      vertex 0.95 7 0
    endloop
  endfacet
  facet normal 0 0 -1
    outer loop
      vertex -0.0973244 1.54694 0
      vertex 1.69834 4.08539 0
      vertex 0.0973244 1.54694 0
    endloop
  endfacet
  facet normal -0 0 -1
    outer loop
      vertex 1.69834 4.08539 0
      vertex -0.0973244 1.54694 0
      vertex 1.37485 4.77285 0
    endloop
  endfacet
  facet normal 0 0 -1
    outer loop
      vertex 1.37485 9.22715 0
      vertex -0.438211 9.945 0
      vertex -0.0104532 10.854 0
    endloop
  endfacet
  facet normal 0 0 -1
    outer loop
      vertex -0.290441 1.52254 0
      vertex 1.37485 4.77285 0
      vertex -0.0973244 1.54694 0
    endloop
  endfacet
  facet normal 0 0 -1
    outer loop
      vertex -0.478976 1.47414 0
      vertex 1.37485 4.77285 0
      vertex -0.290441 1.52254 0
    endloop
  endfacet
  facet normal -0 0 -1
    outer loop
      vertex 1.37485 4.77285 0
      vertex -0.478976 1.47414 0
      vertex 1.14007 5.49543 0
    endloop
  endfacet
  facet normal 0 0 -1
    outer loop
      vertex 2.10545 10.5561 0
      vertex 0.527864 11.7023 0
      vertex 1.16825 12.4764 0
    endloop
  endfacet
  facet normal 0 0 -1
    outer loop
      vertex -0.659958 1.40248 0
      vertex 1.14007 5.49543 0
      vertex -0.478976 1.47414 0
    endloop
  endfacet
  facet normal 0 0 -1
    outer loop
      vertex -3.25422 1.28843 0
      vertex 1.14007 5.49543 0
      vertex -0.659958 1.40248 0
    endloop
  endfacet
  facet normal 0 0 -1
    outer loop
      vertex 1.69834 9.91461 0
      vertex -0.0104532 10.854 0
      vertex 0.527864 11.7023 0
    endloop
  endfacet
  facet normal -0 0 -1
    outer loop
      vertex 1.14007 5.49543 0
      vertex -3.25422 1.28843 0
      vertex 0.997705 6.24173 0
    endloop
  endfacet
  facet normal -0 0 -1
    outer loop
      vertex 0.997705 6.24173 0
      vertex -3.25422 1.28843 0
      vertex 0.95 7 0
    endloop
  endfacet
  facet normal 0 0 -1
    outer loop
      vertex -3.25422 1.28843 0
      vertex -0.659958 1.40248 0
      vertex -0.830531 1.30871 0
    endloop
  endfacet
  facet normal 0 0 -1
    outer loop
      vertex -3.25422 1.28843 0
      vertex -0.830531 1.30871 0
      vertex -0.988007 1.19429 0
    endloop
  endfacet
  facet normal 0 0 -1
    outer loop
      vertex -3.25422 1.28843 0
      vertex -0.988007 1.19429 0
      vertex -1.1299 1.06105 0
    endloop
  endfacet
  facet normal 0 0 -1
    outer loop
      vertex -3.25422 1.28843 0
      vertex -1.1299 1.06105 0
      vertex -1.25398 0.911067 0
    endloop
  endfacet
  facet normal 0 0 -1
    outer loop
      vertex -3.25422 1.28843 0
      vertex -1.25398 0.911067 0
      vertex -1.35827 0.746717 0
    endloop
  endfacet
  facet normal 0 0 -1
    outer loop
      vertex -3.25422 1.28843 0
      vertex -1.35827 0.746717 0
      vertex -1.44115 0.570593 0
    endloop
  endfacet
  facet normal 0 0 -1
    outer loop
      vertex -3.25422 1.28843 0
      vertex -1.44115 0.570593 0
      vertex -1.5013 0.385468 0
    endloop
  endfacet
  facet normal 0 0 -1
    outer loop
      vertex -3.39004 0.870414 0
      vertex -1.5013 0.385468 0
      vertex -1.53778 0.194266 0
    endloop
  endfacet
  facet normal -0 0 -1
    outer loop
      vertex -1.35827 -0.746717 0
      vertex -3.06707 -1.68614 0
      vertex -1.44115 -0.570593 0
    endloop
  endfacet
  facet normal 0 0 -1
    outer loop
      vertex -3.25422 -1.28843 0
      vertex -1.44115 -0.570593 0
      vertex -3.06707 -1.68614 0
    endloop
  endfacet
  facet normal -0 0 -1
    outer loop
      vertex -1.44115 -0.570593 0
      vertex -3.25422 -1.28843 0
      vertex -1.5013 -0.385468 0
    endloop
  endfacet
  facet normal 0 0 -1
    outer loop
      vertex -3.39004 -0.870414 0
      vertex -1.5013 -0.385468 0
      vertex -3.25422 -1.28843 0
    endloop
  endfacet
  facet normal -0 0 -1
    outer loop
      vertex -1.5013 -0.385468 0
      vertex -3.39004 -0.870414 0
      vertex -1.53778 -0.194266 0
    endloop
  endfacet
  facet normal 0 0 -1
    outer loop
      vertex -3.4724 -0.438665 0
      vertex -1.53778 -0.194266 0
      vertex -3.39004 -0.870414 0
    endloop
  endfacet
  facet normal -0 0 -1
    outer loop
      vertex -1.53778 -0.194266 0
      vertex -3.4724 -0.438665 0
      vertex -1.55 0 0
    endloop
  endfacet
  facet normal -0 0 -1
    outer loop
      vertex 0.95 7 0
      vertex -3.25422 1.28843 0
      vertex -0.438211 9.945 0
    endloop
  endfacet
  facet normal 0 0 -1
    outer loop
      vertex -3.5 0 0
      vertex -1.55 0 0
      vertex -3.4724 -0.438665 0
    endloop
  endfacet
  facet normal 0 0 -1
    outer loop
      vertex -1.5013 0.385468 0
      vertex -3.39004 0.870414 0
      vertex -3.25422 1.28843 0
    endloop
  endfacet
  facet normal 0 0 -1
    outer loop
      vertex -1.55 0 0
      vertex -3.5 0 0
      vertex -1.53778 0.194266 0
    endloop
  endfacet
  facet normal 0 0 -1
    outer loop
      vertex -1.53778 0.194266 0
      vertex -3.4724 0.438665 0
      vertex -3.39004 0.870414 0
    endloop
  endfacet
  facet normal -0 0 -1
    outer loop
      vertex -1.53778 0.194266 0
      vertex -3.5 0 0
      vertex -3.4724 0.438665 0
    endloop
  endfacet
  facet normal 0.3084 -0.951257 0
    outer loop
      vertex 1.08156 -3.3287 0
      vertex 9.47214 -0.608452 5
      vertex 1.08156 -3.3287 5
    endloop
  endfacet
  facet normal 0.3084 -0.951257 0
    outer loop
      vertex 9.47214 -0.608452 5
      vertex 1.08156 -3.3287 0
      vertex 9.47214 -0.608452 0
    endloop
  endfacet
  facet normal 0 -1 0
    outer loop
      vertex -0.219767 -3.49309 0
      vertex 0.219767 -3.49309 5
      vertex -0.219767 -3.49309 5
    endloop
  endfacet
  facet normal 0 -1 -0
    outer loop
      vertex 0.219767 -3.49309 5
      vertex -0.219767 -3.49309 0
      vertex 0.219767 -3.49309 0
    endloop
  endfacet
  facet normal -0.998027 -0.0627924 0
    outer loop
      vertex -3.4724 -0.438665 0
      vertex -3.5 0 5
      vertex -3.5 0 0
    endloop
  endfacet
  facet normal -0.998027 -0.0627924 0
    outer loop
      vertex -3.5 0 5
      vertex -3.4724 -0.438665 0
      vertex -3.4724 -0.438665 5
    endloop
  endfacet
  facet normal 0.998027 0.0627908 0
    outer loop
      vertex 15 7 5
      vertex 14.9369 8.00267 0
      vertex 14.9369 8.00267 5
    endloop
  endfacet
  facet normal 0.998027 0.0627908 0
    outer loop
      vertex 14.9369 8.00267 0
      vertex 15 7 5
      vertex 15 7 0
    endloop
  endfacet
  facet normal 0.770513 -0.637424 0
    outer loop
      vertex 12.8317 1.52362 5
      vertex 13.4721 2.29772 0
      vertex 13.4721 2.29772 5
    endloop
  endfacet
  facet normal 0.770513 -0.637424 0
    outer loop
      vertex 13.4721 2.29772 0
      vertex 12.8317 1.52362 5
      vertex 12.8317 1.52362 0
    endloop
  endfacet
  facet normal 0.587785 -0.809017 0
    outer loop
      vertex 11.2866 0.245377 0
      vertex 12.0994 0.835894 5
      vertex 11.2866 0.245377 5
    endloop
  endfacet
  facet normal 0.587785 -0.809017 0
    outer loop
      vertex 12.0994 0.835894 5
      vertex 11.2866 0.245377 0
      vertex 12.0994 0.835894 0
    endloop
  endfacet
  facet normal 0 0 1
    outer loop
      vertex 10.8564 11.6616 5
      vertex 12.0994 13.1641 5
      vertex 11.2866 13.7546 5
    endloop
  endfacet
  facet normal 0 0 1
    outer loop
      vertex 12.0994 13.1641 5
      vertex 10.8564 11.6616 5
      vertex 12.6485 12.6485 5
    endloop
  endfacet
  facet normal 0 0 1
    outer loop
      vertex 12.6485 12.6485 5
      vertex 10.8564 11.6616 5
      vertex 11.2717 11.2717 5
    endloop
  endfacet
  facet normal 0 0 1
    outer loop
      vertex 10.2418 12.1082 5
      vertex 11.2866 13.7546 5
      vertex 10.4062 14.2386 5
    endloop
  endfacet
  facet normal 0 0 1
    outer loop
      vertex 11.2866 13.7546 5
      vertex 10.2418 12.1082 5
      vertex 10.8564 11.6616 5
    endloop
  endfacet
  facet normal 0 0 1
    outer loop
      vertex 10.4062 14.2386 5
      vertex 9.57596 12.4742 5
      vertex 10.2418 12.1082 5
    endloop
  endfacet
  facet normal 0 0 1
    outer loop
      vertex 9.47214 14.6085 5
      vertex 9.57596 12.4742 5
      vertex 10.4062 14.2386 5
    endloop
  endfacet
  facet normal 0 0 1
    outer loop
      vertex 9.47214 14.6085 5
      vertex 8.86955 12.7539 5
      vertex 9.57596 12.4742 5
    endloop
  endfacet
  facet normal 0 0 1
    outer loop
      vertex 8.49905 14.8583 5
      vertex 8.86955 12.7539 5
      vertex 9.47214 14.6085 5
    endloop
  endfacet
  facet normal 0 0 1
    outer loop
      vertex 8.49905 14.8583 5
      vertex 8.13366 12.9428 5
      vertex 8.86955 12.7539 5
    endloop
  endfacet
  facet normal 0 0 1
    outer loop
      vertex 7.50232 14.9842 5
      vertex 8.13366 12.9428 5
      vertex 8.49905 14.8583 5
    endloop
  endfacet
  facet normal 0 0 1
    outer loop
      vertex 7.50232 14.9842 5
      vertex 7.37988 13.0381 5
      vertex 8.13366 12.9428 5
    endloop
  endfacet
  facet normal 0 0 1
    outer loop
      vertex 7.50232 14.9842 5
      vertex 6.62012 13.0381 5
      vertex 7.37988 13.0381 5
    endloop
  endfacet
  facet normal -0 0 1
    outer loop
      vertex 6.49767 14.9842 5
      vertex 6.62012 13.0381 5
      vertex 7.50232 14.9842 5
    endloop
  endfacet
  facet normal 0 0 1
    outer loop
      vertex 6.49767 14.9842 5
      vertex 5.86634 12.9428 5
      vertex 6.62012 13.0381 5
    endloop
  endfacet
  facet normal -0 0 1
    outer loop
      vertex 5.50095 14.8583 5
      vertex 5.86634 12.9428 5
      vertex 6.49767 14.9842 5
    endloop
  endfacet
  facet normal 0 0 1
    outer loop
      vertex 5.50095 14.8583 5
      vertex 5.13045 12.7539 5
      vertex 5.86634 12.9428 5
    endloop
  endfacet
  facet normal -0 0 1
    outer loop
      vertex 4.52786 14.6085 5
      vertex 5.13045 12.7539 5
      vertex 5.50095 14.8583 5
    endloop
  endfacet
  facet normal 0 0 1
    outer loop
      vertex 4.52786 14.6085 5
      vertex 4.42404 12.4742 5
      vertex 5.13045 12.7539 5
    endloop
  endfacet
  facet normal -0 0 1
    outer loop
      vertex 3.59377 14.2386 5
      vertex 4.42404 12.4742 5
      vertex 4.52786 14.6085 5
    endloop
  endfacet
  facet normal 0 0 1
    outer loop
      vertex 4.42404 12.4742 5
      vertex 3.59377 14.2386 5
      vertex 3.75825 12.1082 5
    endloop
  endfacet
  facet normal -0 0 1
    outer loop
      vertex 2.71339 13.7546 5
      vertex 3.75825 12.1082 5
      vertex 3.59377 14.2386 5
    endloop
  endfacet
  facet normal 0 0 1
    outer loop
      vertex 3.75825 12.1082 5
      vertex 2.71339 13.7546 5
      vertex 3.14358 11.6616 5
    endloop
  endfacet
  facet normal -0 0 1
    outer loop
      vertex 1.90061 13.1641 5
      vertex 3.14358 11.6616 5
      vertex 2.71339 13.7546 5
    endloop
  endfacet
  facet normal 0 0 1
    outer loop
      vertex 3.14358 11.6616 5
      vertex 1.90061 13.1641 5
      vertex 2.58974 11.1415 5
    endloop
  endfacet
  facet normal -0 0 1
    outer loop
      vertex 1.16825 12.4764 5
      vertex 2.58974 11.1415 5
      vertex 1.90061 13.1641 5
    endloop
  endfacet
  facet normal 0 0 1
    outer loop
      vertex 2.58974 11.1415 5
      vertex 1.16825 12.4764 5
      vertex 2.10545 10.5561 5
    endloop
  endfacet
  facet normal -0 0 1
    outer loop
      vertex 0.527864 11.7023 5
      vertex 2.10545 10.5561 5
      vertex 1.16825 12.4764 5
    endloop
  endfacet
  facet normal 0 0 1
    outer loop
      vertex 2.10545 10.5561 5
      vertex 0.527864 11.7023 5
      vertex 1.69834 9.91461 5
    endloop
  endfacet
  facet normal -0 0 1
    outer loop
      vertex -0.0104532 10.854 5
      vertex 1.69834 9.91461 5
      vertex 0.527864 11.7023 5
    endloop
  endfacet
  facet normal 0 0 1
    outer loop
      vertex 1.69834 9.91461 5
      vertex -0.0104532 10.854 5
      vertex 1.37485 9.22715 5
    endloop
  endfacet
  facet normal -0 0 1
    outer loop
      vertex -0.438211 9.945 5
      vertex 1.37485 9.22715 5
      vertex -0.0104532 10.854 5
    endloop
  endfacet
  facet normal 0 0 1
    outer loop
      vertex 2.10545 3.4439 5
      vertex 0.659958 1.40248 5
      vertex 0.830531 1.30871 5
    endloop
  endfacet
  facet normal 0 0 1
    outer loop
      vertex 1.37485 9.22715 5
      vertex -0.438211 9.945 5
      vertex 1.14007 8.50457 5
    endloop
  endfacet
  facet normal 0 0 1
    outer loop
      vertex 1.14007 8.50457 5
      vertex -0.438211 9.945 5
      vertex 0.997705 7.75827 5
    endloop
  endfacet
  facet normal 0 0 1
    outer loop
      vertex -3.25422 1.28843 5
      vertex 0.95 7 5
      vertex -0.438211 9.945 5
    endloop
  endfacet
  facet normal 0 0 1
    outer loop
      vertex 0.997705 6.24173 5
      vertex 0.478976 1.47414 5
      vertex 0.659958 1.40248 5
    endloop
  endfacet
  facet normal 0 0 1
    outer loop
      vertex 0.997705 6.24173 5
      vertex 0.290441 1.52254 5
      vertex 0.478976 1.47414 5
    endloop
  endfacet
  facet normal 0 0 1
    outer loop
      vertex 0.997705 7.75827 5
      vertex -0.438211 9.945 5
      vertex 0.95 7 5
    endloop
  endfacet
  facet normal 0 0 1
    outer loop
      vertex 0.997705 6.24173 5
      vertex 0.0973244 1.54694 5
      vertex 0.290441 1.52254 5
    endloop
  endfacet
  facet normal 0 0 1
    outer loop
      vertex 0.997705 6.24173 5
      vertex -0.0973244 1.54694 5
      vertex 0.0973244 1.54694 5
    endloop
  endfacet
  facet normal 0 0 1
    outer loop
      vertex 0.997705 6.24173 5
      vertex -0.290441 1.52254 5
      vertex -0.0973244 1.54694 5
    endloop
  endfacet
  facet normal 0 0 1
    outer loop
      vertex 0.997705 6.24173 5
      vertex -0.478976 1.47414 5
      vertex -0.290441 1.52254 5
    endloop
  endfacet
  facet normal 0 0 1
    outer loop
      vertex 0.997705 6.24173 5
      vertex -3.25422 1.28843 5
      vertex -0.659958 1.40248 5
    endloop
  endfacet
  facet normal 0 0 1
    outer loop
      vertex 0.997705 6.24173 5
      vertex -0.659958 1.40248 5
      vertex -0.478976 1.47414 5
    endloop
  endfacet
  facet normal 0 0 1
    outer loop
      vertex -0.659958 1.40248 5
      vertex -3.25422 1.28843 5
      vertex -0.830531 1.30871 5
    endloop
  endfacet
  facet normal 0 0 1
    outer loop
      vertex -0.830531 1.30871 5
      vertex -3.25422 1.28843 5
      vertex -0.988007 1.19429 5
    endloop
  endfacet
  facet normal 0 0 1
    outer loop
      vertex -0.988007 1.19429 5
      vertex -3.25422 1.28843 5
      vertex -1.1299 1.06105 5
    endloop
  endfacet
  facet normal 0 0 1
    outer loop
      vertex -1.1299 1.06105 5
      vertex -3.25422 1.28843 5
      vertex -1.25398 0.911067 5
    endloop
  endfacet
  facet normal 0 0 1
    outer loop
      vertex -1.25398 0.911067 5
      vertex -3.25422 1.28843 5
      vertex -1.35827 0.746717 5
    endloop
  endfacet
  facet normal 0 0 1
    outer loop
      vertex -1.35827 0.746717 5
      vertex -3.25422 1.28843 5
      vertex -1.44115 0.570593 5
    endloop
  endfacet
  facet normal 0 0 1
    outer loop
      vertex -1.44115 0.570593 5
      vertex -3.25422 1.28843 5
      vertex -1.5013 0.385468 5
    endloop
  endfacet
  facet normal 0 0 1
    outer loop
      vertex -3.5 0 5
      vertex -1.55 0 5
      vertex -1.53778 0.194266 5
    endloop
  endfacet
  facet normal 0 0 1
    outer loop
      vertex -1.55 0 5
      vertex -2.23098 -2.6968 5
      vertex -1.87539 -2.95515 5
    endloop
  endfacet
  facet normal -0 0 1
    outer loop
      vertex -3.39004 0.870414 5
      vertex -1.5013 0.385468 5
      vertex -3.25422 1.28843 5
    endloop
  endfacet
  facet normal 0 0 1
    outer loop
      vertex -1.5013 0.385468 5
      vertex -3.39004 0.870414 5
      vertex -1.53778 0.194266 5
    endloop
  endfacet
  facet normal 0 0 1
    outer loop
      vertex -1.55 0 5
      vertex -2.55139 -2.39591 5
      vertex -2.23098 -2.6968 5
    endloop
  endfacet
  facet normal 0 0 1
    outer loop
      vertex -1.55 0 5
      vertex -2.83156 -2.05725 5
      vertex -2.55139 -2.39591 5
    endloop
  endfacet
  facet normal 0 0 1
    outer loop
      vertex -1.55 0 5
      vertex -3.06707 -1.68614 5
      vertex -2.83156 -2.05725 5
    endloop
  endfacet
  facet normal 0 0 1
    outer loop
      vertex -1.55 0 5
      vertex -3.25422 -1.28843 5
      vertex -3.06707 -1.68614 5
    endloop
  endfacet
  facet normal -0 0 1
    outer loop
      vertex -3.4724 0.438665 5
      vertex -1.53778 0.194266 5
      vertex -3.39004 0.870414 5
    endloop
  endfacet
  facet normal 0 0 1
    outer loop
      vertex -1.55 0 5
      vertex -3.39004 -0.870414 5
      vertex -3.25422 -1.28843 5
    endloop
  endfacet
  facet normal 0 0 1
    outer loop
      vertex -3.5 0 5
      vertex -1.53778 0.194266 5
      vertex -3.4724 0.438665 5
    endloop
  endfacet
  facet normal 0 0 1
    outer loop
      vertex -1.55 0 5
      vertex -3.4724 -0.438665 5
      vertex -3.39004 -0.870414 5
    endloop
  endfacet
  facet normal 0 0 1
    outer loop
      vertex -1.55 0 5
      vertex -3.5 0 5
      vertex -3.4724 -0.438665 5
    endloop
  endfacet
  facet normal 0 0 1
    outer loop
      vertex 2.58974 2.85849 5
      vertex 1.09439 1.09439 5
      vertex 2.72834 2.72834 5
    endloop
  endfacet
  facet normal 0 0 1
    outer loop
      vertex 0.830531 1.30871 5
      vertex 2.58974 2.85849 5
      vertex 2.10545 3.4439 5
    endloop
  endfacet
  facet normal 0 0 1
    outer loop
      vertex 0.659958 1.40248 5
      vertex 2.10545 3.4439 5
      vertex 1.69834 4.08539 5
    endloop
  endfacet
  facet normal 0 0 1
    outer loop
      vertex 0.659958 1.40248 5
      vertex 1.69834 4.08539 5
      vertex 1.37485 4.77285 5
    endloop
  endfacet
  facet normal 0 0 1
    outer loop
      vertex 0.659958 1.40248 5
      vertex 1.37485 4.77285 5
      vertex 1.14007 5.49543 5
    endloop
  endfacet
  facet normal 0 0 1
    outer loop
      vertex 0.659958 1.40248 5
      vertex 1.14007 5.49543 5
      vertex 0.997705 6.24173 5
    endloop
  endfacet
  facet normal 0 0 1
    outer loop
      vertex 2.58974 2.85849 5
      vertex 0.988007 1.19429 5
      vertex 1.09439 1.09439 5
    endloop
  endfacet
  facet normal 0 0 1
    outer loop
      vertex -3.25422 1.28843 5
      vertex 0.997705 6.24173 5
      vertex 0.95 7 5
    endloop
  endfacet
  facet normal 0 0 1
    outer loop
      vertex 2.58974 2.85849 5
      vertex 0.830531 1.30871 5
      vertex 0.988007 1.19429 5
    endloop
  endfacet
  facet normal 0 0 1
    outer loop
      vertex 3.75825 1.89182 5
      vertex 1.53778 0.194266 5
      vertex 1.55 0 5
    endloop
  endfacet
  facet normal 0 0 1
    outer loop
      vertex 3.14358 2.33839 5
      vertex 1.5013 0.385468 5
      vertex 1.53778 0.194266 5
    endloop
  endfacet
  facet normal 0 0 1
    outer loop
      vertex 3.14358 2.33839 5
      vertex 1.44115 0.570593 5
      vertex 1.5013 0.385468 5
    endloop
  endfacet
  facet normal 0 0 1
    outer loop
      vertex 3.14358 2.33839 5
      vertex 1.38885 0.681743 5
      vertex 1.44115 0.570593 5
    endloop
  endfacet
  facet normal 0 0 1
    outer loop
      vertex 13.05 7 5
      vertex 15 7 5
      vertex 14.9369 8.00267 5
    endloop
  endfacet
  facet normal 0 0 1
    outer loop
      vertex 13.0023 7.75827 5
      vertex 14.9369 8.00267 5
      vertex 14.7487 8.98952 5
    endloop
  endfacet
  facet normal 0 0 1
    outer loop
      vertex 15 7 5
      vertex 13.05 7 5
      vertex 14.9369 5.99733 5
    endloop
  endfacet
  facet normal 0 0 1
    outer loop
      vertex 12.8599 8.50457 5
      vertex 14.7487 8.98952 5
      vertex 14.4382 9.945 5
    endloop
  endfacet
  facet normal -0 0 1
    outer loop
      vertex 13.0023 6.24173 5
      vertex 14.9369 5.99733 5
      vertex 13.05 7 5
    endloop
  endfacet
  facet normal 0 0 1
    outer loop
      vertex 12.6251 9.22715 5
      vertex 14.4382 9.945 5
      vertex 14.0105 10.854 5
    endloop
  endfacet
  facet normal 0 0 1
    outer loop
      vertex 14.9369 5.99733 5
      vertex 13.0023 6.24173 5
      vertex 14.7487 5.01048 5
    endloop
  endfacet
  facet normal 0 0 1
    outer loop
      vertex 12.3017 9.91461 5
      vertex 14.0105 10.854 5
      vertex 13.4721 11.7023 5
    endloop
  endfacet
  facet normal -0 0 1
    outer loop
      vertex 12.8599 5.49543 5
      vertex 14.7487 5.01048 5
      vertex 13.0023 6.24173 5
    endloop
  endfacet
  facet normal 0 0 1
    outer loop
      vertex 14.7487 5.01048 5
      vertex 12.8599 5.49543 5
      vertex 14.4382 4.055 5
    endloop
  endfacet
  facet normal 0 0 1
    outer loop
      vertex 14.9369 8.00267 5
      vertex 13.0023 7.75827 5
      vertex 13.05 7 5
    endloop
  endfacet
  facet normal 0 0 1
    outer loop
      vertex 11.6087 10.9016 5
      vertex 13.4721 11.7023 5
      vertex 12.991 12.2839 5
    endloop
  endfacet
  facet normal 0 0 1
    outer loop
      vertex 14.7487 8.98952 5
      vertex 12.8599 8.50457 5
      vertex 13.0023 7.75827 5
    endloop
  endfacet
  facet normal 0 0 1
    outer loop
      vertex 14.4382 9.945 5
      vertex 12.6251 9.22715 5
      vertex 12.8599 8.50457 5
    endloop
  endfacet
  facet normal 0 0 1
    outer loop
      vertex 14.0105 10.854 5
      vertex 12.3017 9.91461 5
      vertex 12.6251 9.22715 5
    endloop
  endfacet
  facet normal 0 0 1
    outer loop
      vertex 13.4721 11.7023 5
      vertex 11.8946 10.5561 5
      vertex 12.3017 9.91461 5
    endloop
  endfacet
  facet normal 0 0 1
    outer loop
      vertex 13.4721 11.7023 5
      vertex 11.6087 10.9016 5
      vertex 11.8946 10.5561 5
    endloop
  endfacet
  facet normal -0 0 1
    outer loop
      vertex 12.6251 4.77285 5
      vertex 14.4382 4.055 5
      vertex 12.8599 5.49543 5
    endloop
  endfacet
  facet normal 0 0 1
    outer loop
      vertex 14.4382 4.055 5
      vertex 12.6251 4.77285 5
      vertex 14.0105 3.14597 5
    endloop
  endfacet
  facet normal -0 0 1
    outer loop
      vertex 12.3017 4.08539 5
      vertex 14.0105 3.14597 5
      vertex 12.6251 4.77285 5
    endloop
  endfacet
  facet normal 0 0 1
    outer loop
      vertex 14.0105 3.14597 5
      vertex 12.3017 4.08539 5
      vertex 13.4721 2.29772 5
    endloop
  endfacet
  facet normal -0 0 1
    outer loop
      vertex 11.8946 3.4439 5
      vertex 13.4721 2.29772 5
      vertex 12.3017 4.08539 5
    endloop
  endfacet
  facet normal 0 0 1
    outer loop
      vertex 13.4721 2.29772 5
      vertex 11.8946 3.4439 5
      vertex 12.8317 1.52362 5
    endloop
  endfacet
  facet normal -0 0 1
    outer loop
      vertex 11.4103 2.85849 5
      vertex 12.8317 1.52362 5
      vertex 11.8946 3.4439 5
    endloop
  endfacet
  facet normal 0 0 1
    outer loop
      vertex 12.8317 1.52362 5
      vertex 11.4103 2.85849 5
      vertex 12.0994 0.835894 5
    endloop
  endfacet
  facet normal -0 0 1
    outer loop
      vertex 10.8564 2.33839 5
      vertex 12.0994 0.835894 5
      vertex 11.4103 2.85849 5
    endloop
  endfacet
  facet normal 0 0 1
    outer loop
      vertex 12.0994 0.835894 5
      vertex 10.8564 2.33839 5
      vertex 11.2866 0.245377 5
    endloop
  endfacet
  facet normal -0 0 1
    outer loop
      vertex 10.2418 1.89182 5
      vertex 11.2866 0.245377 5
      vertex 10.8564 2.33839 5
    endloop
  endfacet
  facet normal 0 0 1
    outer loop
      vertex 11.2866 0.245377 5
      vertex 10.2418 1.89182 5
      vertex 10.4062 -0.238616 5
    endloop
  endfacet
  facet normal -0 0 1
    outer loop
      vertex 9.57596 1.5258 5
      vertex 10.4062 -0.238616 5
      vertex 10.2418 1.89182 5
    endloop
  endfacet
  facet normal 0 0 1
    outer loop
      vertex 9.57596 1.5258 5
      vertex 9.47214 -0.608452 5
      vertex 10.4062 -0.238616 5
    endloop
  endfacet
  facet normal -0 0 1
    outer loop
      vertex 8.86955 1.24611 5
      vertex 9.47214 -0.608452 5
      vertex 9.57596 1.5258 5
    endloop
  endfacet
  facet normal -0 0 1
    outer loop
      vertex 8.13366 1.05716 5
      vertex 9.47214 -0.608452 5
      vertex 8.86955 1.24611 5
    endloop
  endfacet
  facet normal -0 0 1
    outer loop
      vertex 7.37988 0.961938 5
      vertex 9.47214 -0.608452 5
      vertex 8.13366 1.05716 5
    endloop
  endfacet
  facet normal -0 0 1
    outer loop
      vertex 6.62012 0.961938 5
      vertex 9.47214 -0.608452 5
      vertex 7.37988 0.961938 5
    endloop
  endfacet
  facet normal 0 0 1
    outer loop
      vertex 1.08156 -3.3287 5
      vertex 6.62012 0.961938 5
      vertex 5.86634 1.05716 5
    endloop
  endfacet
  facet normal 0 0 1
    outer loop
      vertex 1.35827 -0.746717 5
      vertex 5.86634 1.05716 5
      vertex 5.13045 1.24611 5
    endloop
  endfacet
  facet normal 0 0 1
    outer loop
      vertex 1.5013 -0.385468 5
      vertex 5.13045 1.24611 5
      vertex 4.42404 1.5258 5
    endloop
  endfacet
  facet normal 0 0 1
    outer loop
      vertex 1.38885 0.681743 5
      vertex 3.14358 2.33839 5
      vertex 3.093 2.38589 5
    endloop
  endfacet
  facet normal 0 0 1
    outer loop
      vertex 1.53778 0.194266 5
      vertex 3.75825 1.89182 5
      vertex 3.14358 2.33839 5
    endloop
  endfacet
  facet normal 0 0 1
    outer loop
      vertex 1.55 0 5
      vertex 4.42404 1.5258 5
      vertex 3.75825 1.89182 5
    endloop
  endfacet
  facet normal 0 0 1
    outer loop
      vertex 1.53778 -0.194266 5
      vertex 4.42404 1.5258 5
      vertex 1.55 0 5
    endloop
  endfacet
  facet normal 0 0 1
    outer loop
      vertex 1.5013 -0.385468 5
      vertex 4.42404 1.5258 5
      vertex 1.53778 -0.194266 5
    endloop
  endfacet
  facet normal 0 0 1
    outer loop
      vertex 5.13045 1.24611 5
      vertex 1.5013 -0.385468 5
      vertex 1.44115 -0.570593 5
    endloop
  endfacet
  facet normal 0 0 1
    outer loop
      vertex 5.13045 1.24611 5
      vertex 1.44115 -0.570593 5
      vertex 1.35827 -0.746717 5
    endloop
  endfacet
  facet normal 0 0 1
    outer loop
      vertex 5.86634 1.05716 5
      vertex 1.35827 -0.746717 5
      vertex 1.08156 -3.3287 5
    endloop
  endfacet
  facet normal 0 0 1
    outer loop
      vertex 1.08156 -3.3287 5
      vertex 1.35827 -0.746717 5
      vertex 1.25398 -0.911067 5
    endloop
  endfacet
  facet normal 0 0 1
    outer loop
      vertex 1.08156 -3.3287 5
      vertex 1.25398 -0.911067 5
      vertex 1.1299 -1.06105 5
    endloop
  endfacet
  facet normal 0 0 1
    outer loop
      vertex 6.62012 0.961938 5
      vertex 1.08156 -3.3287 5
      vertex 9.47214 -0.608452 5
    endloop
  endfacet
  facet normal -0 0 1
    outer loop
      vertex 0.988007 -1.19429 5
      vertex 1.08156 -3.3287 5
      vertex 1.1299 -1.06105 5
    endloop
  endfacet
  facet normal -0 0 1
    outer loop
      vertex 0.830531 -1.30871 5
      vertex 1.08156 -3.3287 5
      vertex 0.988007 -1.19429 5
    endloop
  endfacet
  facet normal -0 0 1
    outer loop
      vertex 0.659958 -1.40248 5
      vertex 1.08156 -3.3287 5
      vertex 0.830531 -1.30871 5
    endloop
  endfacet
  facet normal -0 0 1
    outer loop
      vertex 0.478976 -1.47414 5
      vertex 1.08156 -3.3287 5
      vertex 0.659958 -1.40248 5
    endloop
  endfacet
  facet normal 0 0 1
    outer loop
      vertex 1.08156 -3.3287 5
      vertex 0.478976 -1.47414 5
      vertex 0.655834 -3.438 5
    endloop
  endfacet
  facet normal -0 0 1
    outer loop
      vertex 0.290441 -1.52254 5
      vertex 0.655834 -3.438 5
      vertex 0.478976 -1.47414 5
    endloop
  endfacet
  facet normal 0 0 1
    outer loop
      vertex 0.290441 -1.52254 5
      vertex 0.219767 -3.49309 5
      vertex 0.655834 -3.438 5
    endloop
  endfacet
  facet normal -0 0 1
    outer loop
      vertex 0.0973244 -1.54694 5
      vertex 0.219767 -3.49309 5
      vertex 0.290441 -1.52254 5
    endloop
  endfacet
  facet normal -0 0 1
    outer loop
      vertex -0.0973244 -1.54694 5
      vertex 0.219767 -3.49309 5
      vertex 0.0973244 -1.54694 5
    endloop
  endfacet
  facet normal 0 0 1
    outer loop
      vertex -0.0973244 -1.54694 5
      vertex -0.219767 -3.49309 5
      vertex 0.219767 -3.49309 5
    endloop
  endfacet
  facet normal 0 0 1
    outer loop
      vertex -0.290441 -1.52254 5
      vertex -0.219767 -3.49309 5
      vertex -0.0973244 -1.54694 5
    endloop
  endfacet
  facet normal 0 0 1
    outer loop
      vertex -0.655834 -3.438 5
      vertex -0.290441 -1.52254 5
      vertex -0.478976 -1.47414 5
    endloop
  endfacet
  facet normal 0 0 1
    outer loop
      vertex -0.290441 -1.52254 5
      vertex -0.655834 -3.438 5
      vertex -0.219767 -3.49309 5
    endloop
  endfacet
  facet normal 0 0 1
    outer loop
      vertex -1.08156 -3.3287 5
      vertex -0.478976 -1.47414 5
      vertex -0.659958 -1.40248 5
    endloop
  endfacet
  facet normal 0 0 1
    outer loop
      vertex -1.49023 -3.16689 5
      vertex -0.659958 -1.40248 5
      vertex -0.830531 -1.30871 5
    endloop
  endfacet
  facet normal 0 0 1
    outer loop
      vertex -1.87539 -2.95515 5
      vertex -0.830531 -1.30871 5
      vertex -0.988007 -1.19429 5
    endloop
  endfacet
  facet normal 0 0 1
    outer loop
      vertex -0.478976 -1.47414 5
      vertex -1.08156 -3.3287 5
      vertex -0.655834 -3.438 5
    endloop
  endfacet
  facet normal 0 0 1
    outer loop
      vertex -1.87539 -2.95515 5
      vertex -0.988007 -1.19429 5
      vertex -1.1299 -1.06105 5
    endloop
  endfacet
  facet normal 0 0 1
    outer loop
      vertex -1.87539 -2.95515 5
      vertex -1.1299 -1.06105 5
      vertex -1.25398 -0.911067 5
    endloop
  endfacet
  facet normal 0 0 1
    outer loop
      vertex -1.87539 -2.95515 5
      vertex -1.25398 -0.911067 5
      vertex -1.35827 -0.746717 5
    endloop
  endfacet
  facet normal 0 0 1
    outer loop
      vertex -1.87539 -2.95515 5
      vertex -1.35827 -0.746717 5
      vertex -1.44115 -0.570593 5
    endloop
  endfacet
  facet normal 0 0 1
    outer loop
      vertex -0.659958 -1.40248 5
      vertex -1.49023 -3.16689 5
      vertex -1.08156 -3.3287 5
    endloop
  endfacet
  facet normal 0 0 1
    outer loop
      vertex -1.87539 -2.95515 5
      vertex -1.44115 -0.570593 5
      vertex -1.5013 -0.385468 5
    endloop
  endfacet
  facet normal 0 0 1
    outer loop
      vertex -1.87539 -2.95515 5
      vertex -1.5013 -0.385468 5
      vertex -1.53778 -0.194266 5
    endloop
  endfacet
  facet normal 0 0 1
    outer loop
      vertex -1.87539 -2.95515 5
      vertex -1.53778 -0.194266 5
      vertex -1.55 0 5
    endloop
  endfacet
  facet normal 0 0 1
    outer loop
      vertex -0.830531 -1.30871 5
      vertex -1.87539 -2.95515 5
      vertex -1.49023 -3.16689 5
    endloop
  endfacet
  facet normal -0.587785 0.809017 0
    outer loop
      vertex 2.71339 13.7546 0
      vertex 1.90061 13.1641 5
      vertex 2.71339 13.7546 5
    endloop
  endfacet
  facet normal -0.587785 0.809017 0
    outer loop
      vertex 1.90061 13.1641 5
      vertex 2.71339 13.7546 0
      vertex 1.90061 13.1641 0
    endloop
  endfacet
  facet normal -0.770513 0.637424 0
    outer loop
      vertex 0.527864 11.7023 0
      vertex 1.16825 12.4764 5
      vertex 1.16825 12.4764 0
    endloop
  endfacet
  facet normal -0.770513 0.637424 0
    outer loop
      vertex 1.16825 12.4764 5
      vertex 0.527864 11.7023 0
      vertex 0.527864 11.7023 5
    endloop
  endfacet
  facet normal -0.684547 0.728969 0
    outer loop
      vertex 1.90061 13.1641 0
      vertex 1.16825 12.4764 5
      vertex 1.90061 13.1641 5
    endloop
  endfacet
  facet normal -0.684547 0.728969 0
    outer loop
      vertex 1.16825 12.4764 5
      vertex 1.90061 13.1641 0
      vertex 1.16825 12.4764 0
    endloop
  endfacet
  facet normal 0.125335 -0.992114 0
    outer loop
      vertex 0.219767 -3.49309 0
      vertex 0.655834 -3.438 5
      vertex 0.219767 -3.49309 5
    endloop
  endfacet
  facet normal 0.125335 -0.992114 0
    outer loop
      vertex 0.655834 -3.438 5
      vertex 0.219767 -3.49309 0
      vertex 0.655834 -3.438 0
    endloop
  endfacet
  facet normal 0.248689 -0.968583 0
    outer loop
      vertex 0.655834 -3.438 0
      vertex 1.08156 -3.3287 5
      vertex 0.655834 -3.438 5
    endloop
  endfacet
  facet normal 0.248689 -0.968583 0
    outer loop
      vertex 1.08156 -3.3287 5
      vertex 0.655834 -3.438 0
      vertex 1.08156 -3.3287 0
    endloop
  endfacet
  facet normal -0.770513 -0.637425 0
    outer loop
      vertex -2.55139 -2.39591 0
      vertex -2.83156 -2.05725 5
      vertex -2.83156 -2.05725 0
    endloop
  endfacet
  facet normal -0.770513 -0.637425 0
    outer loop
      vertex -2.83156 -2.05725 5
      vertex -2.55139 -2.39591 0
      vertex -2.55139 -2.39591 5
    endloop
  endfacet
  facet normal -0.904827 -0.425779 0
    outer loop
      vertex -3.06707 -1.68614 0
      vertex -3.25422 -1.28843 5
      vertex -3.25422 -1.28843 0
    endloop
  endfacet
  facet normal -0.904827 -0.425779 0
    outer loop
      vertex -3.25422 -1.28843 5
      vertex -3.06707 -1.68614 0
      vertex -3.06707 -1.68614 5
    endloop
  endfacet
  facet normal -0.982287 -0.187381 0
    outer loop
      vertex -3.39004 -0.870414 0
      vertex -3.4724 -0.438665 5
      vertex -3.4724 -0.438665 0
    endloop
  endfacet
  facet normal -0.982287 -0.187381 0
    outer loop
      vertex -3.4724 -0.438665 5
      vertex -3.39004 -0.870414 0
      vertex -3.39004 -0.870414 5
    endloop
  endfacet
  facet normal -0.951057 -0.309017 0
    outer loop
      vertex -3.25422 -1.28843 0
      vertex -3.39004 -0.870414 5
      vertex -3.39004 -0.870414 0
    endloop
  endfacet
  facet normal -0.951057 -0.309017 0
    outer loop
      vertex -3.39004 -0.870414 5
      vertex -3.25422 -1.28843 0
      vertex -3.25422 -1.28843 5
    endloop
  endfacet
  facet normal -0.125333 0.992115 0
    outer loop
      vertex 6.49767 14.9842 0
      vertex 5.50095 14.8583 5
      vertex 6.49767 14.9842 5
    endloop
  endfacet
  facet normal -0.125333 0.992115 0
    outer loop
      vertex 5.50095 14.8583 5
      vertex 6.49767 14.9842 0
      vertex 5.50095 14.8583 0
    endloop
  endfacet
  facet normal 0.904827 -0.425779 0
    outer loop
      vertex 14.0105 3.14597 5
      vertex 14.4382 4.055 0
      vertex 14.4382 4.055 5
    endloop
  endfacet
  facet normal 0.904827 -0.425779 0
    outer loop
      vertex 14.4382 4.055 0
      vertex 14.0105 3.14597 5
      vertex 14.0105 3.14597 0
    endloop
  endfacet
  facet normal 0.982287 -0.187382 0
    outer loop
      vertex 14.7487 5.01048 5
      vertex 14.9369 5.99733 0
      vertex 14.9369 5.99733 5
    endloop
  endfacet
  facet normal 0.982287 -0.187382 0
    outer loop
      vertex 14.9369 5.99733 0
      vertex 14.7487 5.01048 5
      vertex 14.7487 5.01048 0
    endloop
  endfacet
  facet normal -0.998027 0.0627924 0
    outer loop
      vertex -3.5 0 0
      vertex -3.4724 0.438665 5
      vertex -3.4724 0.438665 0
    endloop
  endfacet
  facet normal -0.998027 0.0627924 0
    outer loop
      vertex -3.4724 0.438665 5
      vertex -3.5 0 0
      vertex -3.5 0 5
    endloop
  endfacet
  facet normal -0.982287 0.187381 0
    outer loop
      vertex -3.4724 0.438665 0
      vertex -3.39004 0.870414 5
      vertex -3.39004 0.870414 0
    endloop
  endfacet
  facet normal -0.982287 0.187381 0
    outer loop
      vertex -3.39004 0.870414 5
      vertex -3.4724 0.438665 0
      vertex -3.4724 0.438665 5
    endloop
  endfacet
  facet normal -0.904827 0.425779 0
    outer loop
      vertex -0.438211 9.945 0
      vertex -0.0104532 10.854 5
      vertex -0.0104532 10.854 0
    endloop
  endfacet
  facet normal -0.904827 0.425779 0
    outer loop
      vertex -0.0104532 10.854 5
      vertex -0.438211 9.945 0
      vertex -0.438211 9.945 5
    endloop
  endfacet
  facet normal -0.951057 0.309017 0
    outer loop
      vertex -3.39004 0.870414 0
      vertex -3.25422 1.28843 5
      vertex -3.25422 1.28843 0
    endloop
  endfacet
  facet normal -0.951057 0.309017 0
    outer loop
      vertex -3.25422 1.28843 5
      vertex -3.39004 0.870414 0
      vertex -3.39004 0.870414 5
    endloop
  endfacet
  facet normal -0.481754 0.876306 0
    outer loop
      vertex 3.59377 14.2386 0
      vertex 2.71339 13.7546 5
      vertex 3.59377 14.2386 5
    endloop
  endfacet
  facet normal -0.481754 0.876306 0
    outer loop
      vertex 2.71339 13.7546 5
      vertex 3.59377 14.2386 0
      vertex 2.71339 13.7546 0
    endloop
  endfacet
  facet normal -0.248689 -0.968583 0
    outer loop
      vertex -1.08156 -3.3287 0
      vertex -0.655834 -3.438 5
      vertex -1.08156 -3.3287 5
    endloop
  endfacet
  facet normal -0.248689 -0.968583 -0
    outer loop
      vertex -0.655834 -3.438 5
      vertex -1.08156 -3.3287 0
      vertex -0.655834 -3.438 0
    endloop
  endfacet
  facet normal -0.368125 0.929776 0
    outer loop
      vertex 4.52786 14.6085 0
      vertex 3.59377 14.2386 5
      vertex 4.52786 14.6085 5
    endloop
  endfacet
  facet normal -0.368125 0.929776 0
    outer loop
      vertex 3.59377 14.2386 5
      vertex 4.52786 14.6085 0
      vertex 3.59377 14.2386 0
    endloop
  endfacet
  facet normal 0.368125 0.929776 -0
    outer loop
      vertex 10.4062 14.2386 0
      vertex 9.47214 14.6085 5
      vertex 10.4062 14.2386 5
    endloop
  endfacet
  facet normal 0.368125 0.929776 0
    outer loop
      vertex 9.47214 14.6085 5
      vertex 10.4062 14.2386 0
      vertex 9.47214 14.6085 0
    endloop
  endfacet
  facet normal 0 1 -0
    outer loop
      vertex 7.50232 14.9842 0
      vertex 6.49767 14.9842 5
      vertex 7.50232 14.9842 5
    endloop
  endfacet
  facet normal 0 1 0
    outer loop
      vertex 6.49767 14.9842 5
      vertex 7.50232 14.9842 0
      vertex 6.49767 14.9842 0
    endloop
  endfacet
  facet normal 0.481754 0.876306 -0
    outer loop
      vertex 11.2866 13.7546 0
      vertex 10.4062 14.2386 5
      vertex 11.2866 13.7546 5
    endloop
  endfacet
  facet normal 0.481754 0.876306 0
    outer loop
      vertex 10.4062 14.2386 5
      vertex 11.2866 13.7546 0
      vertex 10.4062 14.2386 0
    endloop
  endfacet
  facet normal 0.587785 0.809017 -0
    outer loop
      vertex 12.0994 13.1641 0
      vertex 11.2866 13.7546 5
      vertex 12.0994 13.1641 5
    endloop
  endfacet
  facet normal 0.587785 0.809017 0
    outer loop
      vertex 11.2866 13.7546 5
      vertex 12.0994 13.1641 0
      vertex 11.2866 13.7546 0
    endloop
  endfacet
  facet normal 0.684547 0.728969 -0
    outer loop
      vertex 12.6485 12.6485 0
      vertex 12.0994 13.1641 5
      vertex 12.6485 12.6485 5
    endloop
  endfacet
  facet normal 0.684547 0.728969 0
    outer loop
      vertex 12.0994 13.1641 5
      vertex 12.6485 12.6485 0
      vertex 12.0994 13.1641 0
    endloop
  endfacet
  facet normal 0.904827 0.425779 0
    outer loop
      vertex 14.4382 9.945 5
      vertex 14.0105 10.854 0
      vertex 14.0105 10.854 5
    endloop
  endfacet
  facet normal 0.904827 0.425779 0
    outer loop
      vertex 14.0105 10.854 0
      vertex 14.4382 9.945 5
      vertex 14.4382 9.945 0
    endloop
  endfacet
  facet normal 0.951057 0.309017 0
    outer loop
      vertex 14.7487 8.98952 5
      vertex 14.4382 9.945 0
      vertex 14.4382 9.945 5
    endloop
  endfacet
  facet normal 0.951057 0.309017 0
    outer loop
      vertex 14.4382 9.945 0
      vertex 14.7487 8.98952 5
      vertex 14.7487 8.98952 0
    endloop
  endfacet
  facet normal 0.951057 -0.309017 0
    outer loop
      vertex 14.4382 4.055 5
      vertex 14.7487 5.01048 0
      vertex 14.7487 5.01048 5
    endloop
  endfacet
  facet normal 0.951057 -0.309017 0
    outer loop
      vertex 14.7487 5.01048 0
      vertex 14.4382 4.055 5
      vertex 14.4382 4.055 0
    endloop
  endfacet
  facet normal -0.950949 0.309347 0
    outer loop
      vertex -3.25422 1.28843 0
      vertex -0.438211 9.945 5
      vertex -0.438211 9.945 0
    endloop
  endfacet
  facet normal -0.950949 0.309347 0
    outer loop
      vertex -0.438211 9.945 5
      vertex -3.25422 1.28843 0
      vertex -3.25422 1.28843 5
    endloop
  endfacet
  facet normal -0.587784 -0.809018 0
    outer loop
      vertex -2.23098 -2.6968 0
      vertex -1.87539 -2.95515 5
      vertex -2.23098 -2.6968 5
    endloop
  endfacet
  facet normal -0.587784 -0.809018 -0
    outer loop
      vertex -1.87539 -2.95515 5
      vertex -2.23098 -2.6968 0
      vertex -1.87539 -2.95515 0
    endloop
  endfacet
  facet normal -0.368125 -0.929776 0
    outer loop
      vertex -1.49023 -3.16689 0
      vertex -1.08156 -3.3287 5
      vertex -1.49023 -3.16689 5
    endloop
  endfacet
  facet normal -0.368125 -0.929776 -0
    outer loop
      vertex -1.08156 -3.3287 5
      vertex -1.49023 -3.16689 0
      vertex -1.08156 -3.3287 0
    endloop
  endfacet
  facet normal -0.125335 -0.992114 0
    outer loop
      vertex -0.655834 -3.438 0
      vertex -0.219767 -3.49309 5
      vertex -0.655834 -3.438 5
    endloop
  endfacet
  facet normal -0.125335 -0.992114 -0
    outer loop
      vertex -0.219767 -3.49309 5
      vertex -0.655834 -3.438 0
      vertex -0.219767 -3.49309 0
    endloop
  endfacet
  facet normal -0.844328 -0.535826 0
    outer loop
      vertex -2.83156 -2.05725 0
      vertex -3.06707 -1.68614 5
      vertex -3.06707 -1.68614 0
    endloop
  endfacet
  facet normal -0.844328 -0.535826 0
    outer loop
      vertex -3.06707 -1.68614 5
      vertex -2.83156 -2.05725 0
      vertex -2.83156 -2.05725 5
    endloop
  endfacet
  facet normal -0.24869 0.968583 0
    outer loop
      vertex 5.50095 14.8583 0
      vertex 4.52786 14.6085 5
      vertex 5.50095 14.8583 5
    endloop
  endfacet
  facet normal -0.24869 0.968583 0
    outer loop
      vertex 4.52786 14.6085 5
      vertex 5.50095 14.8583 0
      vertex 4.52786 14.6085 0
    endloop
  endfacet
  facet normal 0.125333 0.992115 -0
    outer loop
      vertex 8.49905 14.8583 0
      vertex 7.50232 14.9842 5
      vertex 8.49905 14.8583 5
    endloop
  endfacet
  facet normal 0.125333 0.992115 0
    outer loop
      vertex 7.50232 14.9842 5
      vertex 8.49905 14.8583 0
      vertex 7.50232 14.9842 0
    endloop
  endfacet
  facet normal 0.770513 0.637424 0
    outer loop
      vertex 13.4721 11.7023 5
      vertex 12.991 12.2839 0
      vertex 12.991 12.2839 5
    endloop
  endfacet
  facet normal 0.770513 0.637424 0
    outer loop
      vertex 12.991 12.2839 0
      vertex 13.4721 11.7023 5
      vertex 13.4721 11.7023 0
    endloop
  endfacet
  facet normal 0.844328 0.535827 0
    outer loop
      vertex 14.0105 10.854 5
      vertex 13.4721 11.7023 0
      vertex 13.4721 11.7023 5
    endloop
  endfacet
  facet normal 0.844328 0.535827 0
    outer loop
      vertex 13.4721 11.7023 0
      vertex 14.0105 10.854 5
      vertex 14.0105 10.854 0
    endloop
  endfacet
  facet normal 0.982287 0.187382 0
    outer loop
      vertex 14.9369 8.00267 5
      vertex 14.7487 8.98952 0
      vertex 14.7487 8.98952 5
    endloop
  endfacet
  facet normal 0.982287 0.187382 0
    outer loop
      vertex 14.7487 8.98952 0
      vertex 14.9369 8.00267 5
      vertex 14.9369 8.00267 0
    endloop
  endfacet
  facet normal -0.481754 -0.876306 0
    outer loop
      vertex -1.87539 -2.95515 0
      vertex -1.49023 -3.16689 5
      vertex -1.87539 -2.95515 5
    endloop
  endfacet
  facet normal -0.481754 -0.876306 -0
    outer loop
      vertex -1.49023 -3.16689 5
      vertex -1.87539 -2.95515 0
      vertex -1.49023 -3.16689 0
    endloop
  endfacet
  facet normal 0.24869 0.968583 -0
    outer loop
      vertex 9.47214 14.6085 0
      vertex 8.49905 14.8583 5
      vertex 9.47214 14.6085 5
    endloop
  endfacet
  facet normal 0.24869 0.968583 0
    outer loop
      vertex 8.49905 14.8583 5
      vertex 9.47214 14.6085 0
      vertex 8.49905 14.8583 0
    endloop
  endfacet
  facet normal -0.904825 -0.425784 0
    outer loop
      vertex 1.44115 0.570593 0
      vertex 1.38885 0.681743 5
      vertex 1.38885 0.681743 0
    endloop
  endfacet
  facet normal -0.904825 -0.425784 0
    outer loop
      vertex 1.38885 0.681743 5
      vertex 1.44115 0.570593 0
      vertex 1.44115 0.570593 5
    endloop
  endfacet
  facet normal -0.248689 -0.968583 0
    outer loop
      vertex 0.290441 1.52254 0
      vertex 0.478976 1.47414 5
      vertex 0.290441 1.52254 5
    endloop
  endfacet
  facet normal -0.248689 -0.968583 -0
    outer loop
      vertex 0.478976 1.47414 5
      vertex 0.290441 1.52254 0
      vertex 0.478976 1.47414 0
    endloop
  endfacet
  facet normal -0.368127 -0.929776 0
    outer loop
      vertex 0.478976 1.47414 0
      vertex 0.659958 1.40248 5
      vertex 0.478976 1.47414 5
    endloop
  endfacet
  facet normal -0.368127 -0.929776 -0
    outer loop
      vertex 0.659958 1.40248 5
      vertex 0.478976 1.47414 0
      vertex 0.659958 1.40248 0
    endloop
  endfacet
  facet normal 0.368127 -0.929776 0
    outer loop
      vertex -0.659958 1.40248 0
      vertex -0.478976 1.47414 5
      vertex -0.659958 1.40248 5
    endloop
  endfacet
  facet normal 0.368127 -0.929776 0
    outer loop
      vertex -0.478976 1.47414 5
      vertex -0.659958 1.40248 0
      vertex -0.478976 1.47414 0
    endloop
  endfacet
  facet normal 0.904825 -0.425784 0
    outer loop
      vertex -1.44115 0.570593 5
      vertex -1.35827 0.746717 0
      vertex -1.35827 0.746717 5
    endloop
  endfacet
  facet normal 0.904825 -0.425784 0
    outer loop
      vertex -1.35827 0.746717 0
      vertex -1.44115 0.570593 5
      vertex -1.44115 0.570593 0
    endloop
  endfacet
  facet normal -0.982288 0.187379 0
    outer loop
      vertex 1.5013 -0.385468 0
      vertex 1.53778 -0.194266 5
      vertex 1.53778 -0.194266 0
    endloop
  endfacet
  facet normal -0.982288 0.187379 0
    outer loop
      vertex 1.53778 -0.194266 5
      vertex 1.5013 -0.385468 0
      vertex 1.5013 -0.385468 5
    endloop
  endfacet
  facet normal -0.125332 -0.992115 0
    outer loop
      vertex 0.0973244 1.54694 0
      vertex 0.290441 1.52254 5
      vertex 0.0973244 1.54694 5
    endloop
  endfacet
  facet normal -0.125332 -0.992115 -0
    outer loop
      vertex 0.290441 1.52254 5
      vertex 0.0973244 1.54694 0
      vertex 0.290441 1.52254 0
    endloop
  endfacet
  facet normal -0.587787 -0.809015 0
    outer loop
      vertex 0.830531 1.30871 0
      vertex 0.988007 1.19429 5
      vertex 0.830531 1.30871 5
    endloop
  endfacet
  facet normal -0.587787 -0.809015 -0
    outer loop
      vertex 0.988007 1.19429 5
      vertex 0.830531 1.30871 0
      vertex 0.988007 1.19429 0
    endloop
  endfacet
  facet normal 0.770513 -0.637425 0
    outer loop
      vertex -1.25398 0.911067 5
      vertex -1.1299 1.06105 0
      vertex -1.1299 1.06105 5
    endloop
  endfacet
  facet normal 0.770513 -0.637425 0
    outer loop
      vertex -1.1299 1.06105 0
      vertex -1.25398 0.911067 5
      vertex -1.25398 0.911067 0
    endloop
  endfacet
  facet normal 0.481752 -0.876308 0
    outer loop
      vertex -0.830531 1.30871 0
      vertex -0.659958 1.40248 5
      vertex -0.830531 1.30871 5
    endloop
  endfacet
  facet normal 0.481752 -0.876308 0
    outer loop
      vertex -0.659958 1.40248 5
      vertex -0.830531 1.30871 0
      vertex -0.659958 1.40248 0
    endloop
  endfacet
  facet normal 0.248689 -0.968583 0
    outer loop
      vertex -0.478976 1.47414 0
      vertex -0.290441 1.52254 5
      vertex -0.478976 1.47414 5
    endloop
  endfacet
  facet normal 0.248689 -0.968583 0
    outer loop
      vertex -0.290441 1.52254 5
      vertex -0.478976 1.47414 0
      vertex -0.290441 1.52254 0
    endloop
  endfacet
  facet normal -0.998027 -0.062791 0
    outer loop
      vertex 1.55 0 0
      vertex 1.53778 0.194266 5
      vertex 1.53778 0.194266 0
    endloop
  endfacet
  facet normal -0.998027 -0.062791 0
    outer loop
      vertex 1.53778 0.194266 5
      vertex 1.55 0 0
      vertex 1.55 0 5
    endloop
  endfacet
  facet normal -0.951057 0.309015 0
    outer loop
      vertex 1.44115 -0.570593 0
      vertex 1.5013 -0.385468 5
      vertex 1.5013 -0.385468 0
    endloop
  endfacet
  facet normal -0.951057 0.309015 0
    outer loop
      vertex 1.5013 -0.385468 5
      vertex 1.44115 -0.570593 0
      vertex 1.44115 -0.570593 5
    endloop
  endfacet
  facet normal 0.684546 0.728969 -0
    outer loop
      vertex -0.988007 -1.19429 0
      vertex -1.1299 -1.06105 5
      vertex -0.988007 -1.19429 5
    endloop
  endfacet
  facet normal 0.684546 0.728969 0
    outer loop
      vertex -1.1299 -1.06105 5
      vertex -0.988007 -1.19429 0
      vertex -1.1299 -1.06105 0
    endloop
  endfacet
  facet normal -0.587787 0.809015 0
    outer loop
      vertex 0.988007 -1.19429 0
      vertex 0.830531 -1.30871 5
      vertex 0.988007 -1.19429 5
    endloop
  endfacet
  facet normal -0.587787 0.809015 0
    outer loop
      vertex 0.830531 -1.30871 5
      vertex 0.988007 -1.19429 0
      vertex 0.830531 -1.30871 0
    endloop
  endfacet
  facet normal -0.982288 -0.187379 0
    outer loop
      vertex 1.53778 0.194266 0
      vertex 1.5013 0.385468 5
      vertex 1.5013 0.385468 0
    endloop
  endfacet
  facet normal -0.982288 -0.187379 0
    outer loop
      vertex 1.5013 0.385468 5
      vertex 1.53778 0.194266 0
      vertex 1.53778 0.194266 5
    endloop
  endfacet
  facet normal -0.951057 -0.309015 0
    outer loop
      vertex 1.5013 0.385468 0
      vertex 1.44115 0.570593 5
      vertex 1.44115 0.570593 0
    endloop
  endfacet
  facet normal -0.951057 -0.309015 0
    outer loop
      vertex 1.44115 0.570593 5
      vertex 1.5013 0.385468 0
      vertex 1.5013 0.385468 5
    endloop
  endfacet
  facet normal -0.684546 -0.728969 0
    outer loop
      vertex 0.988007 1.19429 0
      vertex 1.09439 1.09439 5
      vertex 0.988007 1.19429 5
    endloop
  endfacet
  facet normal -0.684546 -0.728969 -0
    outer loop
      vertex 1.09439 1.09439 5
      vertex 0.988007 1.19429 0
      vertex 1.09439 1.09439 0
    endloop
  endfacet
  facet normal 0 -1 0
    outer loop
      vertex -0.0973244 1.54694 0
      vertex 0.0973244 1.54694 5
      vertex -0.0973244 1.54694 5
    endloop
  endfacet
  facet normal 0 -1 -0
    outer loop
      vertex 0.0973244 1.54694 5
      vertex -0.0973244 1.54694 0
      vertex 0.0973244 1.54694 0
    endloop
  endfacet
  facet normal -0.481752 -0.876308 0
    outer loop
      vertex 0.659958 1.40248 0
      vertex 0.830531 1.30871 5
      vertex 0.659958 1.40248 5
    endloop
  endfacet
  facet normal -0.481752 -0.876308 -0
    outer loop
      vertex 0.830531 1.30871 5
      vertex 0.659958 1.40248 0
      vertex 0.830531 1.30871 0
    endloop
  endfacet
  facet normal 0.998027 -0.062791 0
    outer loop
      vertex -1.55 0 5
      vertex -1.53778 0.194266 0
      vertex -1.53778 0.194266 5
    endloop
  endfacet
  facet normal 0.998027 -0.062791 0
    outer loop
      vertex -1.53778 0.194266 0
      vertex -1.55 0 5
      vertex -1.55 0 0
    endloop
  endfacet
  facet normal 0.951057 -0.309015 0
    outer loop
      vertex -1.5013 0.385468 5
      vertex -1.44115 0.570593 0
      vertex -1.44115 0.570593 5
    endloop
  endfacet
  facet normal 0.951057 -0.309015 0
    outer loop
      vertex -1.44115 0.570593 0
      vertex -1.5013 0.385468 5
      vertex -1.5013 0.385468 0
    endloop
  endfacet
  facet normal 0.84433 -0.535824 0
    outer loop
      vertex -1.35827 0.746717 5
      vertex -1.25398 0.911067 0
      vertex -1.25398 0.911067 5
    endloop
  endfacet
  facet normal 0.84433 -0.535824 0
    outer loop
      vertex -1.25398 0.911067 0
      vertex -1.35827 0.746717 5
      vertex -1.35827 0.746717 0
    endloop
  endfacet
  facet normal 0.125332 -0.992115 0
    outer loop
      vertex -0.290441 1.52254 0
      vertex -0.0973244 1.54694 5
      vertex -0.290441 1.52254 5
    endloop
  endfacet
  facet normal 0.125332 -0.992115 0
    outer loop
      vertex -0.0973244 1.54694 5
      vertex -0.290441 1.52254 0
      vertex -0.0973244 1.54694 0
    endloop
  endfacet
  facet normal 0.587787 -0.809015 0
    outer loop
      vertex -0.988007 1.19429 0
      vertex -0.830531 1.30871 5
      vertex -0.988007 1.19429 5
    endloop
  endfacet
  facet normal 0.587787 -0.809015 0
    outer loop
      vertex -0.830531 1.30871 5
      vertex -0.988007 1.19429 0
      vertex -0.830531 1.30871 0
    endloop
  endfacet
  facet normal 0.684546 -0.728969 0
    outer loop
      vertex -1.1299 1.06105 0
      vertex -0.988007 1.19429 5
      vertex -1.1299 1.06105 5
    endloop
  endfacet
  facet normal 0.684546 -0.728969 0
    outer loop
      vertex -0.988007 1.19429 5
      vertex -1.1299 1.06105 0
      vertex -0.988007 1.19429 0
    endloop
  endfacet
  facet normal -0.998027 0.062791 0
    outer loop
      vertex 1.53778 -0.194266 0
      vertex 1.55 0 5
      vertex 1.55 0 0
    endloop
  endfacet
  facet normal -0.998027 0.062791 0
    outer loop
      vertex 1.55 0 5
      vertex 1.53778 -0.194266 0
      vertex 1.53778 -0.194266 5
    endloop
  endfacet
  facet normal -0.84433 0.535824 0
    outer loop
      vertex 1.25398 -0.911067 0
      vertex 1.35827 -0.746717 5
      vertex 1.35827 -0.746717 0
    endloop
  endfacet
  facet normal -0.84433 0.535824 0
    outer loop
      vertex 1.35827 -0.746717 5
      vertex 1.25398 -0.911067 0
      vertex 1.25398 -0.911067 5
    endloop
  endfacet
  facet normal 0.770513 0.637425 0
    outer loop
      vertex -1.1299 -1.06105 5
      vertex -1.25398 -0.911067 0
      vertex -1.25398 -0.911067 5
    endloop
  endfacet
  facet normal 0.770513 0.637425 0
    outer loop
      vertex -1.25398 -0.911067 0
      vertex -1.1299 -1.06105 5
      vertex -1.1299 -1.06105 0
    endloop
  endfacet
  facet normal -0.248689 0.968583 0
    outer loop
      vertex 0.478976 -1.47414 0
      vertex 0.290441 -1.52254 5
      vertex 0.478976 -1.47414 5
    endloop
  endfacet
  facet normal -0.248689 0.968583 0
    outer loop
      vertex 0.290441 -1.52254 5
      vertex 0.478976 -1.47414 0
      vertex 0.290441 -1.52254 0
    endloop
  endfacet
  facet normal 0.982288 -0.187379 0
    outer loop
      vertex -1.53778 0.194266 5
      vertex -1.5013 0.385468 0
      vertex -1.5013 0.385468 5
    endloop
  endfacet
  facet normal 0.982288 -0.187379 0
    outer loop
      vertex -1.5013 0.385468 0
      vertex -1.53778 0.194266 5
      vertex -1.53778 0.194266 0
    endloop
  endfacet
  facet normal -0.904825 0.425784 0
    outer loop
      vertex 1.35827 -0.746717 0
      vertex 1.44115 -0.570593 5
      vertex 1.44115 -0.570593 0
    endloop
  endfacet
  facet normal -0.904825 0.425784 0
    outer loop
      vertex 1.44115 -0.570593 5
      vertex 1.35827 -0.746717 0
      vertex 1.35827 -0.746717 5
    endloop
  endfacet
  facet normal 0.481752 0.876308 -0
    outer loop
      vertex -0.659958 -1.40248 0
      vertex -0.830531 -1.30871 5
      vertex -0.659958 -1.40248 5
    endloop
  endfacet
  facet normal 0.481752 0.876308 0
    outer loop
      vertex -0.830531 -1.30871 5
      vertex -0.659958 -1.40248 0
      vertex -0.830531 -1.30871 0
    endloop
  endfacet
  facet normal 0.248689 0.968583 -0
    outer loop
      vertex -0.290441 -1.52254 0
      vertex -0.478976 -1.47414 5
      vertex -0.290441 -1.52254 5
    endloop
  endfacet
  facet normal 0.248689 0.968583 0
    outer loop
      vertex -0.478976 -1.47414 5
      vertex -0.290441 -1.52254 0
      vertex -0.478976 -1.47414 0
    endloop
  endfacet
  facet normal 0.125332 0.992115 -0
    outer loop
      vertex -0.0973244 -1.54694 0
      vertex -0.290441 -1.52254 5
      vertex -0.0973244 -1.54694 5
    endloop
  endfacet
  facet normal 0.125332 0.992115 0
    outer loop
      vertex -0.290441 -1.52254 5
      vertex -0.0973244 -1.54694 0
      vertex -0.290441 -1.52254 0
    endloop
  endfacet
  facet normal 0.998027 0.062791 0
    outer loop
      vertex -1.53778 -0.194266 5
      vertex -1.55 0 0
      vertex -1.55 0 5
    endloop
  endfacet
  facet normal 0.998027 0.062791 0
    outer loop
      vertex -1.55 0 0
      vertex -1.53778 -0.194266 5
      vertex -1.53778 -0.194266 0
    endloop
  endfacet
  facet normal 0.951057 0.309015 0
    outer loop
      vertex -1.44115 -0.570593 5
      vertex -1.5013 -0.385468 0
      vertex -1.5013 -0.385468 5
    endloop
  endfacet
  facet normal 0.951057 0.309015 0
    outer loop
      vertex -1.5013 -0.385468 0
      vertex -1.44115 -0.570593 5
      vertex -1.44115 -0.570593 0
    endloop
  endfacet
  facet normal -0.125332 0.992115 0
    outer loop
      vertex 0.290441 -1.52254 0
      vertex 0.0973244 -1.54694 5
      vertex 0.290441 -1.52254 5
    endloop
  endfacet
  facet normal -0.125332 0.992115 0
    outer loop
      vertex 0.0973244 -1.54694 5
      vertex 0.290441 -1.52254 0
      vertex 0.0973244 -1.54694 0
    endloop
  endfacet
  facet normal -0.481752 0.876308 0
    outer loop
      vertex 0.830531 -1.30871 0
      vertex 0.659958 -1.40248 5
      vertex 0.830531 -1.30871 5
    endloop
  endfacet
  facet normal -0.481752 0.876308 0
    outer loop
      vertex 0.659958 -1.40248 5
      vertex 0.830531 -1.30871 0
      vertex 0.659958 -1.40248 0
    endloop
  endfacet
  facet normal -0.770513 0.637425 0
    outer loop
      vertex 1.1299 -1.06105 0
      vertex 1.25398 -0.911067 5
      vertex 1.25398 -0.911067 0
    endloop
  endfacet
  facet normal -0.770513 0.637425 0
    outer loop
      vertex 1.25398 -0.911067 5
      vertex 1.1299 -1.06105 0
      vertex 1.1299 -1.06105 5
    endloop
  endfacet
  facet normal 0 1 -0
    outer loop
      vertex 0.0973244 -1.54694 0
      vertex -0.0973244 -1.54694 5
      vertex 0.0973244 -1.54694 5
    endloop
  endfacet
  facet normal 0 1 0
    outer loop
      vertex -0.0973244 -1.54694 5
      vertex 0.0973244 -1.54694 0
      vertex -0.0973244 -1.54694 0
    endloop
  endfacet
  facet normal 0.982288 0.187379 0
    outer loop
      vertex -1.5013 -0.385468 5
      vertex -1.53778 -0.194266 0
      vertex -1.53778 -0.194266 5
    endloop
  endfacet
  facet normal 0.982288 0.187379 0
    outer loop
      vertex -1.53778 -0.194266 0
      vertex -1.5013 -0.385468 5
      vertex -1.5013 -0.385468 0
    endloop
  endfacet
  facet normal 0.84433 0.535824 0
    outer loop
      vertex -1.25398 -0.911067 5
      vertex -1.35827 -0.746717 0
      vertex -1.35827 -0.746717 5
    endloop
  endfacet
  facet normal 0.84433 0.535824 0
    outer loop
      vertex -1.35827 -0.746717 0
      vertex -1.25398 -0.911067 5
      vertex -1.25398 -0.911067 0
    endloop
  endfacet
  facet normal 0.904825 0.425784 0
    outer loop
      vertex -1.35827 -0.746717 5
      vertex -1.44115 -0.570593 0
      vertex -1.44115 -0.570593 5
    endloop
  endfacet
  facet normal 0.904825 0.425784 0
    outer loop
      vertex -1.44115 -0.570593 0
      vertex -1.35827 -0.746717 5
      vertex -1.35827 -0.746717 0
    endloop
  endfacet
  facet normal -0.368127 0.929776 0
    outer loop
      vertex 0.659958 -1.40248 0
      vertex 0.478976 -1.47414 5
      vertex 0.659958 -1.40248 5
    endloop
  endfacet
  facet normal -0.368127 0.929776 0
    outer loop
      vertex 0.478976 -1.47414 5
      vertex 0.659958 -1.40248 0
      vertex 0.478976 -1.47414 0
    endloop
  endfacet
  facet normal -0.684546 0.728969 0
    outer loop
      vertex 1.1299 -1.06105 0
      vertex 0.988007 -1.19429 5
      vertex 1.1299 -1.06105 5
    endloop
  endfacet
  facet normal -0.684546 0.728969 0
    outer loop
      vertex 0.988007 -1.19429 5
      vertex 1.1299 -1.06105 0
      vertex 0.988007 -1.19429 0
    endloop
  endfacet
  facet normal 0.587787 0.809015 -0
    outer loop
      vertex -0.830531 -1.30871 0
      vertex -0.988007 -1.19429 5
      vertex -0.830531 -1.30871 5
    endloop
  endfacet
  facet normal 0.587787 0.809015 0
    outer loop
      vertex -0.988007 -1.19429 5
      vertex -0.830531 -1.30871 0
      vertex -0.988007 -1.19429 0
    endloop
  endfacet
  facet normal 0.368127 0.929776 -0
    outer loop
      vertex -0.478976 -1.47414 0
      vertex -0.659958 -1.40248 5
      vertex -0.478976 -1.47414 5
    endloop
  endfacet
  facet normal 0.368127 0.929776 0
    outer loop
      vertex -0.659958 -1.40248 5
      vertex -0.478976 -1.47414 0
      vertex -0.659958 -1.40248 0
    endloop
  endfacet
  facet normal -0.998027 -0.06279 0
    outer loop
      vertex 13.05 7 0
      vertex 13.0023 7.75827 5
      vertex 13.0023 7.75827 0
    endloop
  endfacet
  facet normal -0.998027 -0.06279 0
    outer loop
      vertex 13.0023 7.75827 5
      vertex 13.05 7 0
      vertex 13.05 7 5
    endloop
  endfacet
  facet normal 0.125333 -0.992115 0
    outer loop
      vertex 5.86634 12.9428 0
      vertex 6.62012 13.0381 5
      vertex 5.86634 12.9428 5
    endloop
  endfacet
  facet normal 0.125333 -0.992115 0
    outer loop
      vertex 6.62012 13.0381 5
      vertex 5.86634 12.9428 0
      vertex 6.62012 13.0381 0
    endloop
  endfacet
  facet normal -0.125333 0.992115 0
    outer loop
      vertex 8.13366 1.05716 0
      vertex 7.37988 0.961938 5
      vertex 8.13366 1.05716 5
    endloop
  endfacet
  facet normal -0.125333 0.992115 0
    outer loop
      vertex 7.37988 0.961938 5
      vertex 8.13366 1.05716 0
      vertex 7.37988 0.961938 0
    endloop
  endfacet
  facet normal -0.587785 -0.809017 0
    outer loop
      vertex 10.2418 12.1082 0
      vertex 10.8564 11.6616 5
      vertex 10.2418 12.1082 5
    endloop
  endfacet
  facet normal -0.587785 -0.809017 -0
    outer loop
      vertex 10.8564 11.6616 5
      vertex 10.2418 12.1082 0
      vertex 10.8564 11.6616 0
    endloop
  endfacet
  facet normal 0.770513 -0.637424 0
    outer loop
      vertex 2.10545 10.5561 5
      vertex 2.58974 11.1415 0
      vertex 2.58974 11.1415 5
    endloop
  endfacet
  facet normal 0.770513 -0.637424 0
    outer loop
      vertex 2.58974 11.1415 0
      vertex 2.10545 10.5561 5
      vertex 2.10545 10.5561 0
    endloop
  endfacet
  facet normal 0.481753 -0.876307 0
    outer loop
      vertex 3.75825 12.1082 0
      vertex 4.42404 12.4742 5
      vertex 3.75825 12.1082 5
    endloop
  endfacet
  facet normal 0.481753 -0.876307 0
    outer loop
      vertex 4.42404 12.4742 5
      vertex 3.75825 12.1082 0
      vertex 4.42404 12.4742 0
    endloop
  endfacet
  facet normal -0.844328 0.535827 0
    outer loop
      vertex 11.8946 3.4439 0
      vertex 12.3017 4.08539 5
      vertex 12.3017 4.08539 0
    endloop
  endfacet
  facet normal -0.844328 0.535827 0
    outer loop
      vertex 12.3017 4.08539 5
      vertex 11.8946 3.4439 0
      vertex 11.8946 3.4439 5
    endloop
  endfacet
  facet normal -0.904827 -0.425779 0
    outer loop
      vertex 12.6251 9.22715 0
      vertex 12.3017 9.91461 5
      vertex 12.3017 9.91461 0
    endloop
  endfacet
  facet normal -0.904827 -0.425779 0
    outer loop
      vertex 12.3017 9.91461 5
      vertex 12.6251 9.22715 0
      vertex 12.6251 9.22715 5
    endloop
  endfacet
  facet normal -0.248691 -0.968583 0
    outer loop
      vertex 8.13366 12.9428 0
      vertex 8.86955 12.7539 5
      vertex 8.13366 12.9428 5
    endloop
  endfacet
  facet normal -0.248691 -0.968583 -0
    outer loop
      vertex 8.86955 12.7539 5
      vertex 8.13366 12.9428 0
      vertex 8.86955 12.7539 0
    endloop
  endfacet
  facet normal -0.125333 -0.992115 0
    outer loop
      vertex 7.37988 13.0381 0
      vertex 8.13366 12.9428 5
      vertex 7.37988 13.0381 5
    endloop
  endfacet
  facet normal -0.125333 -0.992115 -0
    outer loop
      vertex 8.13366 12.9428 5
      vertex 7.37988 13.0381 0
      vertex 8.13366 12.9428 0
    endloop
  endfacet
  facet normal -0.481753 -0.876307 0
    outer loop
      vertex 9.57596 12.4742 0
      vertex 10.2418 12.1082 5
      vertex 9.57596 12.4742 5
    endloop
  endfacet
  facet normal -0.481753 -0.876307 -0
    outer loop
      vertex 10.2418 12.1082 5
      vertex 9.57596 12.4742 0
      vertex 10.2418 12.1082 0
    endloop
  endfacet
  facet normal 0.951057 -0.309017 0
    outer loop
      vertex 1.14007 8.50457 5
      vertex 1.37485 9.22715 0
      vertex 1.37485 9.22715 5
    endloop
  endfacet
  facet normal 0.951057 -0.309017 0
    outer loop
      vertex 1.37485 9.22715 0
      vertex 1.14007 8.50457 5
      vertex 1.14007 8.50457 0
    endloop
  endfacet
  facet normal 0.844328 -0.535827 0
    outer loop
      vertex 1.69834 9.91461 5
      vertex 2.10545 10.5561 0
      vertex 2.10545 10.5561 5
    endloop
  endfacet
  facet normal 0.844328 -0.535827 0
    outer loop
      vertex 2.10545 10.5561 0
      vertex 1.69834 9.91461 5
      vertex 1.69834 9.91461 0
    endloop
  endfacet
  facet normal 0.982287 -0.187382 0
    outer loop
      vertex 0.997705 7.75827 5
      vertex 1.14007 8.50457 0
      vertex 1.14007 8.50457 5
    endloop
  endfacet
  facet normal 0.982287 -0.187382 0
    outer loop
      vertex 1.14007 8.50457 0
      vertex 0.997705 7.75827 5
      vertex 0.997705 7.75827 0
    endloop
  endfacet
  facet normal 0.587785 -0.809017 0
    outer loop
      vertex 3.14358 11.6616 0
      vertex 3.75825 12.1082 5
      vertex 3.14358 11.6616 5
    endloop
  endfacet
  facet normal 0.587785 -0.809017 0
    outer loop
      vertex 3.75825 12.1082 5
      vertex 3.14358 11.6616 0
      vertex 3.75825 12.1082 0
    endloop
  endfacet
  facet normal 0.368124 -0.929777 0
    outer loop
      vertex 4.42404 12.4742 0
      vertex 5.13045 12.7539 5
      vertex 4.42404 12.4742 5
    endloop
  endfacet
  facet normal 0.368124 -0.929777 0
    outer loop
      vertex 5.13045 12.7539 5
      vertex 4.42404 12.4742 0
      vertex 5.13045 12.7539 0
    endloop
  endfacet
  facet normal -0.982287 0.187382 0
    outer loop
      vertex 12.8599 5.49543 0
      vertex 13.0023 6.24173 5
      vertex 13.0023 6.24173 0
    endloop
  endfacet
  facet normal -0.982287 0.187382 0
    outer loop
      vertex 13.0023 6.24173 5
      vertex 12.8599 5.49543 0
      vertex 12.8599 5.49543 5
    endloop
  endfacet
  facet normal -0.248691 0.968583 0
    outer loop
      vertex 8.86955 1.24611 0
      vertex 8.13366 1.05716 5
      vertex 8.86955 1.24611 5
    endloop
  endfacet
  facet normal -0.248691 0.968583 0
    outer loop
      vertex 8.13366 1.05716 5
      vertex 8.86955 1.24611 0
      vertex 8.13366 1.05716 0
    endloop
  endfacet
  facet normal -0.481753 0.876307 0
    outer loop
      vertex 10.2418 1.89182 0
      vertex 9.57596 1.5258 5
      vertex 10.2418 1.89182 5
    endloop
  endfacet
  facet normal -0.481753 0.876307 0
    outer loop
      vertex 9.57596 1.5258 5
      vertex 10.2418 1.89182 0
      vertex 9.57596 1.5258 0
    endloop
  endfacet
  facet normal -0.951057 -0.309017 0
    outer loop
      vertex 12.8599 8.50457 0
      vertex 12.6251 9.22715 5
      vertex 12.6251 9.22715 0
    endloop
  endfacet
  facet normal -0.951057 -0.309017 0
    outer loop
      vertex 12.6251 9.22715 5
      vertex 12.8599 8.50457 0
      vertex 12.8599 8.50457 5
    endloop
  endfacet
  facet normal -0.982287 -0.187382 0
    outer loop
      vertex 13.0023 7.75827 0
      vertex 12.8599 8.50457 5
      vertex 12.8599 8.50457 0
    endloop
  endfacet
  facet normal -0.982287 -0.187382 0
    outer loop
      vertex 12.8599 8.50457 5
      vertex 13.0023 7.75827 0
      vertex 13.0023 7.75827 5
    endloop
  endfacet
  facet normal -0.770513 -0.637425 0
    outer loop
      vertex 11.8946 10.5561 0
      vertex 11.6087 10.9016 5
      vertex 11.6087 10.9016 0
    endloop
  endfacet
  facet normal -0.770513 -0.637425 0
    outer loop
      vertex 11.6087 10.9016 5
      vertex 11.8946 10.5561 0
      vertex 11.8946 10.5561 5
    endloop
  endfacet
  facet normal -0.684547 -0.728968 0
    outer loop
      vertex 10.8564 11.6616 0
      vertex 11.2717 11.2717 5
      vertex 10.8564 11.6616 5
    endloop
  endfacet
  facet normal -0.684547 -0.728968 -0
    outer loop
      vertex 11.2717 11.2717 5
      vertex 10.8564 11.6616 0
      vertex 11.2717 11.2717 0
    endloop
  endfacet
  facet normal -0.844328 -0.535827 0
    outer loop
      vertex 12.3017 9.91461 0
      vertex 11.8946 10.5561 5
      vertex 11.8946 10.5561 0
    endloop
  endfacet
  facet normal -0.844328 -0.535827 0
    outer loop
      vertex 11.8946 10.5561 5
      vertex 12.3017 9.91461 0
      vertex 12.3017 9.91461 5
    endloop
  endfacet
  facet normal 0 -1 0
    outer loop
      vertex 6.62012 13.0381 0
      vertex 7.37988 13.0381 5
      vertex 6.62012 13.0381 5
    endloop
  endfacet
  facet normal 0 -1 -0
    outer loop
      vertex 7.37988 13.0381 5
      vertex 6.62012 13.0381 0
      vertex 7.37988 13.0381 0
    endloop
  endfacet
  facet normal -0.368124 -0.929777 0
    outer loop
      vertex 8.86955 12.7539 0
      vertex 9.57596 12.4742 5
      vertex 8.86955 12.7539 5
    endloop
  endfacet
  facet normal -0.368124 -0.929777 -0
    outer loop
      vertex 9.57596 12.4742 5
      vertex 8.86955 12.7539 0
      vertex 9.57596 12.4742 0
    endloop
  endfacet
  facet normal 0.904827 -0.425779 0
    outer loop
      vertex 1.37485 9.22715 5
      vertex 1.69834 9.91461 0
      vertex 1.69834 9.91461 5
    endloop
  endfacet
  facet normal 0.904827 -0.425779 0
    outer loop
      vertex 1.69834 9.91461 0
      vertex 1.37485 9.22715 5
      vertex 1.37485 9.22715 0
    endloop
  endfacet
  facet normal 0.998027 -0.06279 0
    outer loop
      vertex 0.95 7 5
      vertex 0.997705 7.75827 0
      vertex 0.997705 7.75827 5
    endloop
  endfacet
  facet normal 0.998027 -0.06279 0
    outer loop
      vertex 0.997705 7.75827 0
      vertex 0.95 7 5
      vertex 0.95 7 0
    endloop
  endfacet
  facet normal 0.684548 -0.728968 0
    outer loop
      vertex 2.58974 11.1415 0
      vertex 3.14358 11.6616 5
      vertex 2.58974 11.1415 5
    endloop
  endfacet
  facet normal 0.684548 -0.728968 0
    outer loop
      vertex 3.14358 11.6616 5
      vertex 2.58974 11.1415 0
      vertex 3.14358 11.6616 0
    endloop
  endfacet
  facet normal 0.248691 -0.968583 0
    outer loop
      vertex 5.13045 12.7539 0
      vertex 5.86634 12.9428 5
      vertex 5.13045 12.7539 5
    endloop
  endfacet
  facet normal 0.248691 -0.968583 0
    outer loop
      vertex 5.86634 12.9428 5
      vertex 5.13045 12.7539 0
      vertex 5.86634 12.9428 0
    endloop
  endfacet
  facet normal -0.998027 0.06279 0
    outer loop
      vertex 13.0023 6.24173 0
      vertex 13.05 7 5
      vertex 13.05 7 0
    endloop
  endfacet
  facet normal -0.998027 0.06279 0
    outer loop
      vertex 13.05 7 5
      vertex 13.0023 6.24173 0
      vertex 13.0023 6.24173 5
    endloop
  endfacet
  facet normal -0.770513 0.637424 0
    outer loop
      vertex 11.4103 2.85849 0
      vertex 11.8946 3.4439 5
      vertex 11.8946 3.4439 0
    endloop
  endfacet
  facet normal -0.770513 0.637424 0
    outer loop
      vertex 11.8946 3.4439 5
      vertex 11.4103 2.85849 0
      vertex 11.4103 2.85849 5
    endloop
  endfacet
  facet normal 0.998027 0.06279 0
    outer loop
      vertex 0.997705 6.24173 5
      vertex 0.95 7 0
      vertex 0.95 7 5
    endloop
  endfacet
  facet normal 0.998027 0.06279 0
    outer loop
      vertex 0.95 7 0
      vertex 0.997705 6.24173 5
      vertex 0.997705 6.24173 0
    endloop
  endfacet
  facet normal -0.904827 0.425779 0
    outer loop
      vertex 12.3017 4.08539 0
      vertex 12.6251 4.77285 5
      vertex 12.6251 4.77285 0
    endloop
  endfacet
  facet normal -0.904827 0.425779 0
    outer loop
      vertex 12.6251 4.77285 5
      vertex 12.3017 4.08539 0
      vertex 12.3017 4.08539 5
    endloop
  endfacet
  facet normal -0.951057 0.309017 0
    outer loop
      vertex 12.6251 4.77285 0
      vertex 12.8599 5.49543 5
      vertex 12.8599 5.49543 0
    endloop
  endfacet
  facet normal -0.951057 0.309017 0
    outer loop
      vertex 12.8599 5.49543 5
      vertex 12.6251 4.77285 0
      vertex 12.6251 4.77285 5
    endloop
  endfacet
  facet normal -0.587785 0.809017 0
    outer loop
      vertex 10.8564 2.33839 0
      vertex 10.2418 1.89182 5
      vertex 10.8564 2.33839 5
    endloop
  endfacet
  facet normal -0.587785 0.809017 0
    outer loop
      vertex 10.2418 1.89182 5
      vertex 10.8564 2.33839 0
      vertex 10.2418 1.89182 0
    endloop
  endfacet
  facet normal -0.684548 0.728968 0
    outer loop
      vertex 11.4103 2.85849 0
      vertex 10.8564 2.33839 5
      vertex 11.4103 2.85849 5
    endloop
  endfacet
  facet normal -0.684548 0.728968 0
    outer loop
      vertex 10.8564 2.33839 5
      vertex 11.4103 2.85849 0
      vertex 10.8564 2.33839 0
    endloop
  endfacet
  facet normal 0.684549 0.728967 -0
    outer loop
      vertex 2.72834 2.72834 0
      vertex 2.58974 2.85849 5
      vertex 2.72834 2.72834 5
    endloop
  endfacet
  facet normal 0.684549 0.728967 0
    outer loop
      vertex 2.58974 2.85849 5
      vertex 2.72834 2.72834 0
      vertex 2.58974 2.85849 0
    endloop
  endfacet
  facet normal 0.684548 0.728968 -0
    outer loop
      vertex 3.14358 2.33839 0
      vertex 3.093 2.38589 5
      vertex 3.14358 2.33839 5
    endloop
  endfacet
  facet normal 0.684548 0.728968 0
    outer loop
      vertex 3.093 2.38589 5
      vertex 3.14358 2.33839 0
      vertex 3.093 2.38589 0
    endloop
  endfacet
  facet normal 0.904827 0.425779 0
    outer loop
      vertex 1.69834 4.08539 5
      vertex 1.37485 4.77285 0
      vertex 1.37485 4.77285 5
    endloop
  endfacet
  facet normal 0.904827 0.425779 0
    outer loop
      vertex 1.37485 4.77285 0
      vertex 1.69834 4.08539 5
      vertex 1.69834 4.08539 0
    endloop
  endfacet
  facet normal 0.982287 0.187382 0
    outer loop
      vertex 1.14007 5.49543 5
      vertex 0.997705 6.24173 0
      vertex 0.997705 6.24173 5
    endloop
  endfacet
  facet normal 0.982287 0.187382 0
    outer loop
      vertex 0.997705 6.24173 0
      vertex 1.14007 5.49543 5
      vertex 1.14007 5.49543 0
    endloop
  endfacet
  facet normal -0.368124 0.929777 0
    outer loop
      vertex 9.57596 1.5258 0
      vertex 8.86955 1.24611 5
      vertex 9.57596 1.5258 5
    endloop
  endfacet
  facet normal -0.368124 0.929777 0
    outer loop
      vertex 8.86955 1.24611 5
      vertex 9.57596 1.5258 0
      vertex 8.86955 1.24611 0
    endloop
  endfacet
  facet normal 0.248691 0.968583 -0
    outer loop
      vertex 5.86634 1.05716 0
      vertex 5.13045 1.24611 5
      vertex 5.86634 1.05716 5
    endloop
  endfacet
  facet normal 0.248691 0.968583 0
    outer loop
      vertex 5.13045 1.24611 5
      vertex 5.86634 1.05716 0
      vertex 5.13045 1.24611 0
    endloop
  endfacet
  facet normal 0.481753 0.876307 -0
    outer loop
      vertex 4.42404 1.5258 0
      vertex 3.75825 1.89182 5
      vertex 4.42404 1.5258 5
    endloop
  endfacet
  facet normal 0.481753 0.876307 0
    outer loop
      vertex 3.75825 1.89182 5
      vertex 4.42404 1.5258 0
      vertex 3.75825 1.89182 0
    endloop
  endfacet
  facet normal 0.125333 0.992115 -0
    outer loop
      vertex 6.62012 0.961938 0
      vertex 5.86634 1.05716 5
      vertex 6.62012 0.961938 5
    endloop
  endfacet
  facet normal 0.125333 0.992115 0
    outer loop
      vertex 5.86634 1.05716 5
      vertex 6.62012 0.961938 0
      vertex 5.86634 1.05716 0
    endloop
  endfacet
  facet normal 0.587785 0.809017 -0
    outer loop
      vertex 3.75825 1.89182 0
      vertex 3.14358 2.33839 5
      vertex 3.75825 1.89182 5
    endloop
  endfacet
  facet normal 0.587785 0.809017 0
    outer loop
      vertex 3.14358 2.33839 5
      vertex 3.75825 1.89182 0
      vertex 3.14358 2.33839 0
    endloop
  endfacet
  facet normal 0.951057 0.309017 0
    outer loop
      vertex 1.37485 4.77285 5
      vertex 1.14007 5.49543 0
      vertex 1.14007 5.49543 5
    endloop
  endfacet
  facet normal 0.951057 0.309017 0
    outer loop
      vertex 1.14007 5.49543 0
      vertex 1.37485 4.77285 5
      vertex 1.37485 4.77285 0
    endloop
  endfacet
  facet normal 0.368124 0.929777 -0
    outer loop
      vertex 5.13045 1.24611 0
      vertex 4.42404 1.5258 5
      vertex 5.13045 1.24611 5
    endloop
  endfacet
  facet normal 0.368124 0.929777 0
    outer loop
      vertex 4.42404 1.5258 5
      vertex 5.13045 1.24611 0
      vertex 4.42404 1.5258 0
    endloop
  endfacet
  facet normal 0 1 -0
    outer loop
      vertex 7.37988 0.961938 0
      vertex 6.62012 0.961938 5
      vertex 7.37988 0.961938 5
    endloop
  endfacet
  facet normal 0 1 0
    outer loop
      vertex 6.62012 0.961938 5
      vertex 7.37988 0.961938 0
      vertex 6.62012 0.961938 0
    endloop
  endfacet
  facet normal 0.770513 0.637424 0
    outer loop
      vertex 2.58974 2.85849 5
      vertex 2.10545 3.4439 0
      vertex 2.10545 3.4439 5
    endloop
  endfacet
  facet normal 0.770513 0.637424 0
    outer loop
      vertex 2.10545 3.4439 0
      vertex 2.58974 2.85849 5
      vertex 2.58974 2.85849 0
    endloop
  endfacet
  facet normal 0.844328 0.535827 0
    outer loop
      vertex 2.10545 3.4439 5
      vertex 1.69834 4.08539 0
      vertex 1.69834 4.08539 5
    endloop
  endfacet
  facet normal 0.844328 0.535827 0
    outer loop
      vertex 1.69834 4.08539 0
      vertex 2.10545 3.4439 5
      vertex 2.10545 3.4439 0
    endloop
  endfacet
  facet normal 0.707107 -0.707107 0
    outer loop
      vertex 1.09439 1.09439 5
      vertex 2.72834 2.72834 0
      vertex 2.72834 2.72834 5
    endloop
  endfacet
  facet normal 0.707107 -0.707107 0
    outer loop
      vertex 2.72834 2.72834 0
      vertex 1.09439 1.09439 5
      vertex 1.09439 1.09439 0
    endloop
  endfacet
  facet normal 0.707107 -0.707107 0
    outer loop
      vertex 11.2717 11.2717 5
      vertex 12.6485 12.6485 0
      vertex 12.6485 12.6485 5
    endloop
  endfacet
  facet normal 0.707107 -0.707107 0
    outer loop
      vertex 12.6485 12.6485 0
      vertex 11.2717 11.2717 5
      vertex 11.2717 11.2717 0
    endloop
  endfacet
  facet normal -0.707107 0.707107 0
    outer loop
      vertex 1.38885 0.681743 0
      vertex 3.093 2.38589 5
      vertex 3.093 2.38589 0
    endloop
  endfacet
  facet normal -0.707107 0.707107 0
    outer loop
      vertex 3.093 2.38589 5
      vertex 1.38885 0.681743 0
      vertex 1.38885 0.681743 5
    endloop
  endfacet
  facet normal -0.707107 0.707107 0
    outer loop
      vertex 11.6087 10.9016 0
      vertex 12.991 12.2839 5
      vertex 12.991 12.2839 0
    endloop
  endfacet
  facet normal -0.707107 0.707107 0
    outer loop
      vertex 12.991 12.2839 5
      vertex 11.6087 10.9016 0
      vertex 11.6087 10.9016 5
    endloop
  endfacet
endsolid OpenSCAD_Model
